<svg width="32" height="32" viewBox="0 0 52 50" fill="none" xmlns="http://www.w3.org/2000/svg">
<g filter="url(#filter0_i_0_1)">
<rect width="52" height="50" rx="10" fill="url(#paint0_linear_0_1)" style=""/>
</g>
<g style="mix-blend-mode:plus-lighter">
<path d="M4.99336 36.46L7.15336 35.92V12.88L4.99336 12.34V11.8H24.2534V18.28H23.1734C22.7174 17.92 22.3214 17.464 21.9854 16.912C21.2174 15.616 20.8334 14.212 20.8334 12.7H13.0934V24.04H17.2334C17.4014 23.128 17.7134 22.276 18.1694 21.484C18.3614 21.124 18.5894 20.776 18.8534 20.44H19.9334V28.54H18.8534C18.5894 28.204 18.3614 27.856 18.1694 27.496C17.7134 26.704 17.4014 25.852 17.2334 24.94H13.0934V36.1H21.5534C21.5534 34.588 21.9374 33.184 22.7054 31.888C23.0414 31.336 23.4374 30.88 23.8934 30.52H24.9734V37H4.99336V36.46ZM37.0165 37.54C35.3125 37.54 33.7165 37.156 32.2285 36.388C31.5565 36.052 30.9925 35.656 30.5365 35.2C30.2005 35.752 29.7805 36.244 29.2765 36.676C28.8445 36.988 28.6045 37.156 28.5565 37.18H27.6565V30.34H29.0965C29.4565 31.516 29.9605 32.572 30.6085 33.508C32.0725 35.596 33.9685 36.64 36.2965 36.64C37.6645 36.64 38.7565 36.232 39.5725 35.416C40.3885 34.6 40.7965 33.508 40.7965 32.14C40.7965 31.348 40.5565 30.64 40.0765 30.016C39.6205 29.392 39.0445 28.84 38.3485 28.36C37.6525 27.88 36.6805 27.28 35.4325 26.56C33.8485 25.672 32.5645 24.868 31.5805 24.148C30.5965 23.428 29.7565 22.528 29.0605 21.448C28.3645 20.344 28.0165 19.048 28.0165 17.56C28.0165 16.384 28.3405 15.328 28.9885 14.392C29.6605 13.432 30.6565 12.676 31.9765 12.124C33.2965 11.548 34.9165 11.26 36.8365 11.26C38.2285 11.26 39.6205 11.656 41.0125 12.448C41.5405 12.736 42.0685 13.12 42.5965 13.6C43.0045 12.976 43.4245 12.484 43.8565 12.124C44.2885 11.812 44.5285 11.644 44.5765 11.62H45.4765V18.46H44.0365C43.7245 17.308 43.2565 16.264 42.6325 15.328C42.0565 14.416 41.3365 13.66 40.4725 13.06C39.6325 12.46 38.6605 12.16 37.5565 12.16C36.6205 12.16 35.8165 12.532 35.1445 13.276C34.4725 14.02 34.1365 14.968 34.1365 16.12C34.1365 17.008 34.3885 17.812 34.8925 18.532C35.4205 19.228 36.0565 19.84 36.8005 20.368C37.5685 20.896 38.6005 21.532 39.8965 22.276C41.4085 23.14 42.6325 23.908 43.5685 24.58C44.5045 25.252 45.2965 26.092 45.9445 27.1C46.5925 28.084 46.9165 29.224 46.9165 30.52C46.9165 31.816 46.5445 33.004 45.8005 34.084C45.0565 35.14 43.9405 35.98 42.4525 36.604C40.9645 37.228 39.1525 37.54 37.0165 37.54Z" fill="white" style="fill:white;fill-opacity:1;"/>
</g>
<defs>
<filter id="filter0_i_0_1" x="0" y="0" width="52" height="54" filterUnits="userSpaceOnUse" color-interpolation-filters="sRGB">
<feFlood flood-opacity="0" result="BackgroundImageFix"/>
<feBlend mode="normal" in="SourceGraphic" in2="BackgroundImageFix" result="shape"/>
<feColorMatrix in="SourceAlpha" type="matrix" values="0 0 0 0 0 0 0 0 0 0 0 0 0 0 0 0 0 0 127 0" result="hardAlpha"/>
<feOffset dy="4"/>
<feGaussianBlur stdDeviation="2"/>
<feComposite in2="hardAlpha" operator="arithmetic" k2="-1" k3="1"/>
<feColorMatrix type="matrix" values="0 0 0 0 0 0 0 0 0 0 0 0 0 0 0 0 0 0 0.25 0"/>
<feBlend mode="normal" in2="shape" result="effect1_innerShadow_0_1"/>
</filter>
<linearGradient id="paint0_linear_0_1" x1="26" y1="0" x2="26" y2="50" gradientUnits="userSpaceOnUse">
<stop stop-color="#3579F6" style="stop-color:#3579F6;stop-color:color(display-p3 0.2078 0.4745 0.9647);stop-opacity:1;"/>
<stop offset="1" stop-color="#F09235" style="stop-color:#F09235;stop-color:color(display-p3 0.9412 0.5725 0.2078);stop-opacity:1;"/>
</linearGradient>
</defs>
</svg>
