<svg width="100" height="45" viewBox="0 0 103 43" fill="none" xmlns="http://www.w3.org/2000/svg">
<g opacity="0.4">
<mask id="path-1-outside-1_2_2" maskUnits="userSpaceOnUse" x="1" y="4" width="102" height="31" fill="black">
<rect fill="white" x="1" y="4" width="102" height="31"/>
<path d="M6.8645 34V5.056H7.9445V34H6.8645ZM2.1125 34V5.056H3.1925V34H2.1125ZM4.4885 34V5.056H5.5685V34H4.4885ZM9.2405 6.136V5.056H23.6045V6.136H9.2405ZM9.2405 8.512V7.432H23.6045V8.512H9.2405ZM9.2405 10.888V9.808H23.6045V10.888H9.2405ZM9.2405 17.692V16.612H21.5525V17.692H9.2405ZM9.2405 20.068V18.988H21.5525V20.068H9.2405ZM9.2405 22.444V21.364H21.5525V22.444H9.2405ZM9.2405 29.248V28.168H23.6045V29.248H9.2405ZM9.2405 31.624V30.544H23.6045V31.624H9.2405ZM9.2405 34V32.92H23.6045V34H9.2405ZM30.4358 34L40.9118 5.056H42.0638L31.5878 34H30.4358ZM25.3958 34L35.8718 5.056H36.9878L26.5478 34H25.3958ZM27.9158 34L38.3558 5.056H39.5438L29.0678 34H27.9158ZM51.5318 34L42.1358 8.044L42.7118 6.424L52.6838 34H51.5318ZM49.0118 34L40.9118 11.572L41.4518 9.916L50.1638 34H49.0118ZM46.4918 34L39.6518 15.064L40.2278 13.444L47.6438 34H46.4918ZM36.3038 24.424L36.6998 23.344H41.4518L41.8478 24.424H36.3038ZM35.4398 26.836L35.8358 25.756H42.3158L42.7118 26.836H35.4398ZM34.5758 29.212L34.9718 28.132H43.1798L43.5758 29.212H34.5758ZM64.8189 29.788C63.1149 29.788 61.7109 29.464 60.6069 28.816C59.5029 28.144 58.9029 27.256 58.8069 26.152L59.8509 25.864C59.8509 26.68 60.3069 27.364 61.2189 27.916C62.1549 28.444 63.3549 28.708 64.8189 28.708C66.3309 28.708 67.5549 28.432 68.4909 27.88C69.4509 27.328 69.9309 26.62 69.9309 25.756C69.9309 24.94 69.5349 24.28 68.7429 23.776C67.9509 23.272 66.8709 22.828 65.5029 22.444L63.2709 21.796C60.2949 20.932 58.0509 19.84 56.5389 18.52C55.0269 17.2 54.2709 15.388 54.2709 13.084C54.2709 11.428 54.7269 9.964 55.6389 8.692C56.5749 7.396 57.8349 6.376 59.4189 5.632C61.0269 4.888 62.8389 4.516 64.8549 4.516C66.6789 4.516 68.3229 4.816 69.7869 5.416C71.2749 5.992 72.4989 6.82 73.4589 7.9C74.4429 8.98 75.0669 10.24 75.3309 11.68L74.2869 11.968C74.0709 10.696 73.5309 9.58 72.6669 8.62C71.8029 7.66 70.6989 6.916 69.3549 6.388C68.0109 5.86 66.5109 5.596 64.8549 5.596C63.0309 5.596 61.3989 5.932 59.9589 6.604C58.5429 7.252 57.4149 8.14 56.5749 9.268C55.7589 10.396 55.3509 11.692 55.3509 13.156C55.3509 15.124 56.0349 16.708 57.4029 17.908C58.7949 19.084 60.8469 20.044 63.5589 20.788L65.7909 21.4C67.4469 21.856 68.7309 22.408 69.6429 23.056C70.5549 23.704 71.0109 24.58 71.0109 25.684C71.0109 26.908 70.4469 27.904 69.3189 28.672C68.1909 29.416 66.6909 29.788 64.8189 29.788ZM64.8189 32.164C62.5629 32.164 60.6669 31.672 59.1309 30.688C57.6189 29.68 56.7309 28.372 56.4669 26.764L57.5469 26.476C57.7389 27.868 58.4829 28.984 59.7789 29.824C61.0989 30.664 62.7789 31.084 64.8189 31.084C66.3069 31.084 67.6149 30.856 68.7429 30.4C69.8709 29.944 70.7469 29.308 71.3709 28.492C71.9949 27.676 72.3069 26.74 72.3069 25.684C72.3069 24.22 71.7549 23.068 70.6509 22.228C69.5469 21.364 68.0229 20.668 66.0789 20.14L63.8829 19.528C61.5549 18.88 59.7669 18.064 58.5189 17.08C57.2709 16.096 56.6469 14.788 56.6469 13.156C56.6469 11.932 56.9949 10.852 57.6909 9.916C58.4109 8.98 59.3949 8.248 60.6429 7.72C61.8909 7.168 63.2949 6.892 64.8549 6.892C66.3189 6.892 67.6269 7.12 68.7789 7.576C69.9549 8.008 70.9149 8.632 71.6589 9.448C72.4029 10.264 72.8589 11.212 73.0269 12.292L71.9469 12.58C71.7789 11.188 71.0349 10.072 69.7149 9.232C68.4189 8.392 66.7989 7.972 64.8549 7.972C63.4869 7.972 62.2629 8.2 61.1829 8.656C60.1029 9.088 59.2509 9.7 58.6269 10.492C58.0269 11.26 57.7269 12.148 57.7269 13.156C57.7269 14.524 58.2669 15.604 59.3469 16.396C60.4509 17.188 62.0469 17.884 64.1349 18.484L66.2949 19.096C68.5269 19.72 70.2669 20.548 71.5149 21.58C72.7629 22.588 73.3869 23.956 73.3869 25.684C73.3869 26.956 73.0269 28.084 72.3069 29.068C71.5869 30.028 70.5789 30.784 69.2829 31.336C68.0109 31.888 66.5229 32.164 64.8189 32.164ZM64.8189 34.54C62.9469 34.54 61.2549 34.252 59.7429 33.676C58.2549 33.076 57.0189 32.248 56.0349 31.192C55.0749 30.112 54.4509 28.84 54.1629 27.376L55.2069 27.088C55.4469 28.384 55.9869 29.512 56.8269 30.472C57.6909 31.408 58.8069 32.14 60.1749 32.668C61.5429 33.196 63.0909 33.46 64.8189 33.46C66.7869 33.46 68.5029 33.136 69.9669 32.488C71.4549 31.816 72.6069 30.904 73.4229 29.752C74.2629 28.576 74.6829 27.22 74.6829 25.684C74.6829 23.644 73.9749 22.012 72.5589 20.788C71.1429 19.564 69.1509 18.58 66.5829 17.836L64.4589 17.224C62.7069 16.72 61.3629 16.168 60.4269 15.568C59.4909 14.968 59.0229 14.164 59.0229 13.156C59.0229 11.98 59.5749 11.044 60.6789 10.348C61.7829 9.628 63.1749 9.268 64.8549 9.268C66.4869 9.268 67.8309 9.604 68.8869 10.276C69.9429 10.948 70.5429 11.824 70.6869 12.904L69.6429 13.192C69.5949 12.352 69.1269 11.668 68.2389 11.14C67.3749 10.612 66.2469 10.348 64.8549 10.348C63.5349 10.348 62.4069 10.6 61.4709 11.104C60.5589 11.608 60.1029 12.268 60.1029 13.084C60.1029 13.828 60.5229 14.428 61.3629 14.884C62.2269 15.34 63.3549 15.772 64.7469 16.18L66.7989 16.792C69.7029 17.656 71.9229 18.784 73.4589 20.176C74.9949 21.544 75.7629 23.404 75.7629 25.756C75.7629 27.46 75.2949 28.984 74.3589 30.328C73.4469 31.648 72.1629 32.68 70.5069 33.424C68.8749 34.168 66.9789 34.54 64.8189 34.54ZM91.0755 20.356L81.1035 5.056H82.3995L92.4075 20.356H91.0755ZM85.3875 20.356L75.4155 5.056H76.7115L86.6835 20.356H85.3875ZM88.2675 20.356L78.2595 5.056H79.5555L89.5275 20.356H88.2675ZM90.2835 14.704L89.5995 13.696L95.3595 5.056H96.6555L90.2835 14.704ZM91.7235 16.936L91.0755 15.892L98.2035 5.056H99.4995L91.7235 16.936ZM93.1635 19.132L92.4795 18.124L101.048 5.056H102.344L93.1635 19.132ZM90.7155 34V21.688H91.7955V34H90.7155ZM85.9635 34V21.688H87.0435V34H85.9635ZM88.3395 34V21.688H89.4195V34H88.3395Z"/>
</mask>
<g filter="url(#filter0_i_2_2)">
<path d="M6.8645 34V5.056H7.9445V34H6.8645ZM2.1125 34V5.056H3.1925V34H2.1125ZM4.4885 34V5.056H5.5685V34H4.4885ZM9.2405 6.136V5.056H23.6045V6.136H9.2405ZM9.2405 8.512V7.432H23.6045V8.512H9.2405ZM9.2405 10.888V9.808H23.6045V10.888H9.2405ZM9.2405 17.692V16.612H21.5525V17.692H9.2405ZM9.2405 20.068V18.988H21.5525V20.068H9.2405ZM9.2405 22.444V21.364H21.5525V22.444H9.2405ZM9.2405 29.248V28.168H23.6045V29.248H9.2405ZM9.2405 31.624V30.544H23.6045V31.624H9.2405ZM9.2405 34V32.92H23.6045V34H9.2405ZM30.4358 34L40.9118 5.056H42.0638L31.5878 34H30.4358ZM25.3958 34L35.8718 5.056H36.9878L26.5478 34H25.3958ZM27.9158 34L38.3558 5.056H39.5438L29.0678 34H27.9158ZM51.5318 34L42.1358 8.044L42.7118 6.424L52.6838 34H51.5318ZM49.0118 34L40.9118 11.572L41.4518 9.916L50.1638 34H49.0118ZM46.4918 34L39.6518 15.064L40.2278 13.444L47.6438 34H46.4918ZM36.3038 24.424L36.6998 23.344H41.4518L41.8478 24.424H36.3038ZM35.4398 26.836L35.8358 25.756H42.3158L42.7118 26.836H35.4398ZM34.5758 29.212L34.9718 28.132H43.1798L43.5758 29.212H34.5758ZM64.8189 29.788C63.1149 29.788 61.7109 29.464 60.6069 28.816C59.5029 28.144 58.9029 27.256 58.8069 26.152L59.8509 25.864C59.8509 26.68 60.3069 27.364 61.2189 27.916C62.1549 28.444 63.3549 28.708 64.8189 28.708C66.3309 28.708 67.5549 28.432 68.4909 27.88C69.4509 27.328 69.9309 26.62 69.9309 25.756C69.9309 24.94 69.5349 24.28 68.7429 23.776C67.9509 23.272 66.8709 22.828 65.5029 22.444L63.2709 21.796C60.2949 20.932 58.0509 19.84 56.5389 18.52C55.0269 17.2 54.2709 15.388 54.2709 13.084C54.2709 11.428 54.7269 9.964 55.6389 8.692C56.5749 7.396 57.8349 6.376 59.4189 5.632C61.0269 4.888 62.8389 4.516 64.8549 4.516C66.6789 4.516 68.3229 4.816 69.7869 5.416C71.2749 5.992 72.4989 6.82 73.4589 7.9C74.4429 8.98 75.0669 10.24 75.3309 11.68L74.2869 11.968C74.0709 10.696 73.5309 9.58 72.6669 8.62C71.8029 7.66 70.6989 6.916 69.3549 6.388C68.0109 5.86 66.5109 5.596 64.8549 5.596C63.0309 5.596 61.3989 5.932 59.9589 6.604C58.5429 7.252 57.4149 8.14 56.5749 9.268C55.7589 10.396 55.3509 11.692 55.3509 13.156C55.3509 15.124 56.0349 16.708 57.4029 17.908C58.7949 19.084 60.8469 20.044 63.5589 20.788L65.7909 21.4C67.4469 21.856 68.7309 22.408 69.6429 23.056C70.5549 23.704 71.0109 24.58 71.0109 25.684C71.0109 26.908 70.4469 27.904 69.3189 28.672C68.1909 29.416 66.6909 29.788 64.8189 29.788ZM64.8189 32.164C62.5629 32.164 60.6669 31.672 59.1309 30.688C57.6189 29.68 56.7309 28.372 56.4669 26.764L57.5469 26.476C57.7389 27.868 58.4829 28.984 59.7789 29.824C61.0989 30.664 62.7789 31.084 64.8189 31.084C66.3069 31.084 67.6149 30.856 68.7429 30.4C69.8709 29.944 70.7469 29.308 71.3709 28.492C71.9949 27.676 72.3069 26.74 72.3069 25.684C72.3069 24.22 71.7549 23.068 70.6509 22.228C69.5469 21.364 68.0229 20.668 66.0789 20.14L63.8829 19.528C61.5549 18.88 59.7669 18.064 58.5189 17.08C57.2709 16.096 56.6469 14.788 56.6469 13.156C56.6469 11.932 56.9949 10.852 57.6909 9.916C58.4109 8.98 59.3949 8.248 60.6429 7.72C61.8909 7.168 63.2949 6.892 64.8549 6.892C66.3189 6.892 67.6269 7.12 68.7789 7.576C69.9549 8.008 70.9149 8.632 71.6589 9.448C72.4029 10.264 72.8589 11.212 73.0269 12.292L71.9469 12.58C71.7789 11.188 71.0349 10.072 69.7149 9.232C68.4189 8.392 66.7989 7.972 64.8549 7.972C63.4869 7.972 62.2629 8.2 61.1829 8.656C60.1029 9.088 59.2509 9.7 58.6269 10.492C58.0269 11.26 57.7269 12.148 57.7269 13.156C57.7269 14.524 58.2669 15.604 59.3469 16.396C60.4509 17.188 62.0469 17.884 64.1349 18.484L66.2949 19.096C68.5269 19.72 70.2669 20.548 71.5149 21.58C72.7629 22.588 73.3869 23.956 73.3869 25.684C73.3869 26.956 73.0269 28.084 72.3069 29.068C71.5869 30.028 70.5789 30.784 69.2829 31.336C68.0109 31.888 66.5229 32.164 64.8189 32.164ZM64.8189 34.54C62.9469 34.54 61.2549 34.252 59.7429 33.676C58.2549 33.076 57.0189 32.248 56.0349 31.192C55.0749 30.112 54.4509 28.84 54.1629 27.376L55.2069 27.088C55.4469 28.384 55.9869 29.512 56.8269 30.472C57.6909 31.408 58.8069 32.14 60.1749 32.668C61.5429 33.196 63.0909 33.46 64.8189 33.46C66.7869 33.46 68.5029 33.136 69.9669 32.488C71.4549 31.816 72.6069 30.904 73.4229 29.752C74.2629 28.576 74.6829 27.22 74.6829 25.684C74.6829 23.644 73.9749 22.012 72.5589 20.788C71.1429 19.564 69.1509 18.58 66.5829 17.836L64.4589 17.224C62.7069 16.72 61.3629 16.168 60.4269 15.568C59.4909 14.968 59.0229 14.164 59.0229 13.156C59.0229 11.98 59.5749 11.044 60.6789 10.348C61.7829 9.628 63.1749 9.268 64.8549 9.268C66.4869 9.268 67.8309 9.604 68.8869 10.276C69.9429 10.948 70.5429 11.824 70.6869 12.904L69.6429 13.192C69.5949 12.352 69.1269 11.668 68.2389 11.14C67.3749 10.612 66.2469 10.348 64.8549 10.348C63.5349 10.348 62.4069 10.6 61.4709 11.104C60.5589 11.608 60.1029 12.268 60.1029 13.084C60.1029 13.828 60.5229 14.428 61.3629 14.884C62.2269 15.34 63.3549 15.772 64.7469 16.18L66.7989 16.792C69.7029 17.656 71.9229 18.784 73.4589 20.176C74.9949 21.544 75.7629 23.404 75.7629 25.756C75.7629 27.46 75.2949 28.984 74.3589 30.328C73.4469 31.648 72.1629 32.68 70.5069 33.424C68.8749 34.168 66.9789 34.54 64.8189 34.54ZM91.0755 20.356L81.1035 5.056H82.3995L92.4075 20.356H91.0755ZM85.3875 20.356L75.4155 5.056H76.7115L86.6835 20.356H85.3875ZM88.2675 20.356L78.2595 5.056H79.5555L89.5275 20.356H88.2675ZM90.2835 14.704L89.5995 13.696L95.3595 5.056H96.6555L90.2835 14.704ZM91.7235 16.936L91.0755 15.892L98.2035 5.056H99.4995L91.7235 16.936ZM93.1635 19.132L92.4795 18.124L101.048 5.056H102.344L93.1635 19.132ZM90.7155 34V21.688H91.7955V34H90.7155ZM85.9635 34V21.688H87.0435V34H85.9635ZM88.3395 34V21.688H89.4195V34H88.3395Z" fill="#A69E9E" style="fill:#A69E9E;fill:color(display-p3 0.6508 0.6177 0.6177);fill-opacity:1;"/>
</g>
<path d="M6.8645 34H6.6145V34.25H6.8645V34ZM6.8645 5.056V4.806H6.6145V5.056H6.8645ZM7.9445 5.056H8.1945V4.806H7.9445V5.056ZM7.9445 34V34.25H8.1945V34H7.9445ZM2.1125 34H1.8625V34.25H2.1125V34ZM2.1125 5.056V4.806H1.8625V5.056H2.1125ZM3.1925 5.056H3.4425V4.806H3.1925V5.056ZM3.1925 34V34.25H3.4425V34H3.1925ZM4.4885 34H4.2385V34.25H4.4885V34ZM4.4885 5.056V4.806H4.2385V5.056H4.4885ZM5.5685 5.056H5.8185V4.806H5.5685V5.056ZM5.5685 34V34.25H5.8185V34H5.5685ZM9.2405 6.136H8.9905V6.386H9.2405V6.136ZM9.2405 5.056V4.806H8.9905V5.056H9.2405ZM23.6045 5.056H23.8545V4.806H23.6045V5.056ZM23.6045 6.136V6.386H23.8545V6.136H23.6045ZM9.2405 8.512H8.9905V8.762H9.2405V8.512ZM9.2405 7.432V7.182H8.9905V7.432H9.2405ZM23.6045 7.432H23.8545V7.182H23.6045V7.432ZM23.6045 8.512V8.762H23.8545V8.512H23.6045ZM9.2405 10.888H8.9905V11.138H9.2405V10.888ZM9.2405 9.808V9.558H8.9905V9.808H9.2405ZM23.6045 9.808H23.8545V9.558H23.6045V9.808ZM23.6045 10.888V11.138H23.8545V10.888H23.6045ZM9.2405 17.692H8.9905V17.942H9.2405V17.692ZM9.2405 16.612V16.362H8.9905V16.612H9.2405ZM21.5525 16.612H21.8025V16.362H21.5525V16.612ZM21.5525 17.692V17.942H21.8025V17.692H21.5525ZM9.2405 20.068H8.9905V20.318H9.2405V20.068ZM9.2405 18.988V18.738H8.9905V18.988H9.2405ZM21.5525 18.988H21.8025V18.738H21.5525V18.988ZM21.5525 20.068V20.318H21.8025V20.068H21.5525ZM9.2405 22.444H8.9905V22.694H9.2405V22.444ZM9.2405 21.364V21.114H8.9905V21.364H9.2405ZM21.5525 21.364H21.8025V21.114H21.5525V21.364ZM21.5525 22.444V22.694H21.8025V22.444H21.5525ZM9.2405 29.248H8.9905V29.498H9.2405V29.248ZM9.2405 28.168V27.918H8.9905V28.168H9.2405ZM23.6045 28.168H23.8545V27.918H23.6045V28.168ZM23.6045 29.248V29.498H23.8545V29.248H23.6045ZM9.2405 31.624H8.9905V31.874H9.2405V31.624ZM9.2405 30.544V30.294H8.9905V30.544H9.2405ZM23.6045 30.544H23.8545V30.294H23.6045V30.544ZM23.6045 31.624V31.874H23.8545V31.624H23.6045ZM9.2405 34H8.9905V34.25H9.2405V34ZM9.2405 32.92V32.67H8.9905V32.92H9.2405ZM23.6045 32.92H23.8545V32.67H23.6045V32.92ZM23.6045 34V34.25H23.8545V34H23.6045ZM7.1145 34V5.056H6.6145V34H7.1145ZM6.8645 5.306H7.9445V4.806H6.8645V5.306ZM7.6945 5.056V34H8.1945V5.056H7.6945ZM7.9445 33.75H6.8645V34.25H7.9445V33.75ZM2.3625 34V5.056H1.8625V34H2.3625ZM2.1125 5.306H3.1925V4.806H2.1125V5.306ZM2.9425 5.056V34H3.4425V5.056H2.9425ZM3.1925 33.75H2.1125V34.25H3.1925V33.75ZM4.7385 34V5.056H4.2385V34H4.7385ZM4.4885 5.306H5.5685V4.806H4.4885V5.306ZM5.3185 5.056V34H5.8185V5.056H5.3185ZM5.5685 33.75H4.4885V34.25H5.5685V33.75ZM9.4905 6.136V5.056H8.9905V6.136H9.4905ZM9.2405 5.306H23.6045V4.806H9.2405V5.306ZM23.3545 5.056V6.136H23.8545V5.056H23.3545ZM23.6045 5.886H9.2405V6.386H23.6045V5.886ZM9.4905 8.512V7.432H8.9905V8.512H9.4905ZM9.2405 7.682H23.6045V7.182H9.2405V7.682ZM23.3545 7.432V8.512H23.8545V7.432H23.3545ZM23.6045 8.262H9.2405V8.762H23.6045V8.262ZM9.4905 10.888V9.808H8.9905V10.888H9.4905ZM9.2405 10.058H23.6045V9.558H9.2405V10.058ZM23.3545 9.808V10.888H23.8545V9.808H23.3545ZM23.6045 10.638H9.2405V11.138H23.6045V10.638ZM9.4905 17.692V16.612H8.9905V17.692H9.4905ZM9.2405 16.862H21.5525V16.362H9.2405V16.862ZM21.3025 16.612V17.692H21.8025V16.612H21.3025ZM21.5525 17.442H9.2405V17.942H21.5525V17.442ZM9.4905 20.068V18.988H8.9905V20.068H9.4905ZM9.2405 19.238H21.5525V18.738H9.2405V19.238ZM21.3025 18.988V20.068H21.8025V18.988H21.3025ZM21.5525 19.818H9.2405V20.318H21.5525V19.818ZM9.4905 22.444V21.364H8.9905V22.444H9.4905ZM9.2405 21.614H21.5525V21.114H9.2405V21.614ZM21.3025 21.364V22.444H21.8025V21.364H21.3025ZM21.5525 22.194H9.2405V22.694H21.5525V22.194ZM9.4905 29.248V28.168H8.9905V29.248H9.4905ZM9.2405 28.418H23.6045V27.918H9.2405V28.418ZM23.3545 28.168V29.248H23.8545V28.168H23.3545ZM23.6045 28.998H9.2405V29.498H23.6045V28.998ZM9.4905 31.624V30.544H8.9905V31.624H9.4905ZM9.2405 30.794H23.6045V30.294H9.2405V30.794ZM23.3545 30.544V31.624H23.8545V30.544H23.3545ZM23.6045 31.374H9.2405V31.874H23.6045V31.374ZM9.4905 34V32.92H8.9905V34H9.4905ZM9.2405 33.17H23.6045V32.67H9.2405V33.17ZM23.3545 32.92V34H23.8545V32.92H23.3545ZM23.6045 33.75H9.2405V34.25H23.6045V33.75ZM30.4358 34L30.2007 33.9149L30.0794 34.25H30.4358V34ZM40.9118 5.056V4.806H40.7364L40.6767 4.97092L40.9118 5.056ZM42.0638 5.056L42.2989 5.14108L42.4201 4.806H42.0638V5.056ZM31.5878 34V34.25H31.7632L31.8229 34.0851L31.5878 34ZM25.3958 34L25.1607 33.9149L25.0394 34.25H25.3958V34ZM35.8718 5.056V4.806H35.6964L35.6367 4.97092L35.8718 5.056ZM36.9878 5.056L37.223 5.14082L37.3437 4.806H36.9878V5.056ZM26.5478 34V34.25H26.7234L26.783 34.0848L26.5478 34ZM27.9158 34L27.6806 33.9152L27.5598 34.25H27.9158V34ZM38.3558 5.056V4.806H38.1802L38.1206 4.97117L38.3558 5.056ZM39.5438 5.056L39.7789 5.14108L39.9001 4.806H39.5438V5.056ZM29.0678 34V34.25H29.2432L29.3029 34.0851L29.0678 34ZM51.5318 34L51.2967 34.0851L51.3564 34.25H51.5318V34ZM42.1358 8.044L41.9002 7.96025L41.8702 8.04476L41.9007 8.12909L42.1358 8.044ZM42.7118 6.424L42.9469 6.33898L42.7098 5.68335L42.4762 6.34025L42.7118 6.424ZM52.6838 34V34.25H53.04L52.9189 33.915L52.6838 34ZM49.0118 34L48.7766 34.0849L48.8363 34.25H49.0118V34ZM40.9118 11.572L40.6741 11.4945L40.6475 11.5761L40.6766 11.6569L40.9118 11.572ZM41.4518 9.916L41.6869 9.83096L41.4395 9.14718L41.2141 9.83849L41.4518 9.916ZM50.1638 34V34.25H50.5201L50.3989 33.915L50.1638 34ZM46.4918 34L46.2567 34.0849L46.3163 34.25H46.4918V34ZM39.6518 15.064L39.4162 14.9802L39.3862 15.0647L39.4167 15.1489L39.6518 15.064ZM40.2278 13.444L40.4629 13.3592L40.2261 12.7026L39.9922 13.3602L40.2278 13.444ZM47.6438 34V34.25H47.9997L47.8789 33.9152L47.6438 34ZM36.3038 24.424L36.0691 24.3379L35.9458 24.674H36.3038V24.424ZM36.6998 23.344V23.094H36.5252L36.4651 23.2579L36.6998 23.344ZM41.4518 23.344L41.6865 23.2579L41.6264 23.094H41.4518V23.344ZM41.8478 24.424V24.674H42.2057L42.0825 24.3379L41.8478 24.424ZM35.4398 26.836L35.2051 26.7499L35.0818 27.086H35.4398V26.836ZM35.8358 25.756V25.506H35.6612L35.6011 25.6699L35.8358 25.756ZM42.3158 25.756L42.5505 25.6699L42.4904 25.506H42.3158V25.756ZM42.7118 26.836V27.086H43.0697L42.9465 26.7499L42.7118 26.836ZM34.5758 29.212L34.3411 29.1259L34.2178 29.462H34.5758V29.212ZM34.9718 28.132V27.882H34.7972L34.7371 28.0459L34.9718 28.132ZM43.1798 28.132L43.4145 28.0459L43.3544 27.882H43.1798V28.132ZM43.5758 29.212V29.462H43.9337L43.8105 29.1259L43.5758 29.212ZM30.6709 34.0851L41.1469 5.14108L40.6767 4.97092L30.2007 33.9149L30.6709 34.0851ZM40.9118 5.306H42.0638V4.806H40.9118V5.306ZM41.8287 4.97092L31.3527 33.9149L31.8229 34.0851L42.2989 5.14108L41.8287 4.97092ZM31.5878 33.75H30.4358V34.25H31.5878V33.75ZM25.6309 34.0851L36.1069 5.14108L35.6367 4.97092L25.1607 33.9149L25.6309 34.0851ZM35.8718 5.306H36.9878V4.806H35.8718V5.306ZM36.7526 4.97117L26.3126 33.9152L26.783 34.0848L37.223 5.14082L36.7526 4.97117ZM26.5478 33.75H25.3958V34.25H26.5478V33.75ZM28.151 34.0848L38.591 5.14082L38.1206 4.97117L27.6806 33.9152L28.151 34.0848ZM38.3558 5.306H39.5438V4.806H38.3558V5.306ZM39.3087 4.97092L28.8327 33.9149L29.3029 34.0851L39.7789 5.14108L39.3087 4.97092ZM29.0678 33.75H27.9158V34.25H29.0678V33.75ZM51.7669 33.9149L42.3709 7.9589L41.9007 8.12909L51.2967 34.0851L51.7669 33.9149ZM42.3713 8.12775L42.9473 6.50775L42.4762 6.34025L41.9002 7.96025L42.3713 8.12775ZM42.4767 6.50902L52.4487 34.085L52.9189 33.915L42.9469 6.33898L42.4767 6.50902ZM52.6838 33.75H51.5318V34.25H52.6838V33.75ZM49.2469 33.9151L41.1469 11.4871L40.6766 11.6569L48.7766 34.0849L49.2469 33.9151ZM41.1495 11.6495L41.6895 9.9935L41.2141 9.83849L40.6741 11.4945L41.1495 11.6495ZM41.2167 10.001L49.9287 34.085L50.3989 33.915L41.6869 9.83096L41.2167 10.001ZM50.1638 33.75H49.0118V34.25H50.1638V33.75ZM46.7269 33.9151L39.8869 14.9791L39.4167 15.1489L46.2567 34.0849L46.7269 33.9151ZM39.8873 15.1478L40.4633 13.5278L39.9922 13.3602L39.4162 14.9802L39.8873 15.1478ZM39.9926 13.5288L47.4086 34.0848L47.8789 33.9152L40.4629 13.3592L39.9926 13.5288ZM47.6438 33.75H46.4918V34.25H47.6438V33.75ZM36.5385 24.5101L36.9345 23.4301L36.4651 23.2579L36.0691 24.3379L36.5385 24.5101ZM36.6998 23.594H41.4518V23.094H36.6998V23.594ZM41.2171 23.4301L41.6131 24.5101L42.0825 24.3379L41.6865 23.2579L41.2171 23.4301ZM41.8478 24.174H36.3038V24.674H41.8478V24.174ZM35.6745 26.9221L36.0705 25.8421L35.6011 25.6699L35.2051 26.7499L35.6745 26.9221ZM35.8358 26.006H42.3158V25.506H35.8358V26.006ZM42.0811 25.8421L42.4771 26.9221L42.9465 26.7499L42.5505 25.6699L42.0811 25.8421ZM42.7118 26.586H35.4398V27.086H42.7118V26.586ZM34.8105 29.2981L35.2065 28.2181L34.7371 28.0459L34.3411 29.1259L34.8105 29.2981ZM34.9718 28.382H43.1798V27.882H34.9718V28.382ZM42.9451 28.2181L43.3411 29.2981L43.8105 29.1259L43.4145 28.0459L42.9451 28.2181ZM43.5758 28.962H34.5758V29.462H43.5758V28.962ZM60.6069 28.816L60.4769 29.0296L60.4803 29.0316L60.6069 28.816ZM58.8069 26.152L58.7404 25.911L58.5398 25.9663L58.5578 26.1737L58.8069 26.152ZM59.8509 25.864H60.1009V25.5357L59.7844 25.623L59.8509 25.864ZM61.2189 27.916L61.0894 28.13L61.096 28.1337L61.2189 27.916ZM68.4909 27.88L68.3663 27.6633L68.3639 27.6647L68.4909 27.88ZM65.5029 22.444L65.4332 22.6841L65.4353 22.6847L65.5029 22.444ZM63.2709 21.796L63.2012 22.0361L63.2012 22.0361L63.2709 21.796ZM56.5389 18.52L56.3745 18.7083L56.3745 18.7083L56.5389 18.52ZM55.6389 8.692L55.4362 8.54563L55.4357 8.54633L55.6389 8.692ZM59.4189 5.632L59.3139 5.4051L59.3126 5.40572L59.4189 5.632ZM69.7869 5.416L69.6921 5.64737L69.6966 5.64914L69.7869 5.416ZM73.4589 7.9L73.272 8.0661L73.2741 8.06837L73.4589 7.9ZM75.3309 11.68L75.3974 11.921L75.6181 11.8601L75.5768 11.6349L75.3309 11.68ZM74.2869 11.968L74.0404 12.0099L74.0867 12.2826L74.3534 12.209L74.2869 11.968ZM69.3549 6.388L69.2635 6.62069L69.2635 6.62069L69.3549 6.388ZM59.9589 6.604L60.0629 6.83133L60.0646 6.83054L59.9589 6.604ZM56.5749 9.268L56.3743 9.11867L56.3723 9.12147L56.5749 9.268ZM57.4029 17.908L57.238 18.096L57.2415 18.099L57.4029 17.908ZM63.5589 20.788L63.4927 21.0291L63.4928 21.0291L63.5589 20.788ZM65.7909 21.4L65.8572 21.159L65.857 21.1589L65.7909 21.4ZM69.6429 23.056L69.7877 22.8522L69.7877 22.8522L69.6429 23.056ZM69.3189 28.672L69.4565 28.8807L69.4596 28.8786L69.3189 28.672ZM59.1309 30.688L58.9922 30.896L58.996 30.8985L59.1309 30.688ZM56.4669 26.764L56.4025 26.5224L56.1835 26.5808L56.2202 26.8045L56.4669 26.764ZM57.5469 26.476L57.7945 26.4418L57.7559 26.1615L57.4825 26.2344L57.5469 26.476ZM59.7789 29.824L59.6429 30.0338L59.6447 30.0349L59.7789 29.824ZM71.3709 28.492L71.1723 28.3401L71.1723 28.3401L71.3709 28.492ZM70.6509 22.228L70.4968 22.4249L70.4995 22.427L70.6509 22.228ZM66.0789 20.14L66.0118 20.3808L66.0133 20.3813L66.0789 20.14ZM63.8829 19.528L63.95 19.2872L63.9499 19.2872L63.8829 19.528ZM58.5189 17.08L58.6737 16.8837L58.6737 16.8837L58.5189 17.08ZM57.6909 9.916L57.4927 9.76355L57.4903 9.76682L57.6909 9.916ZM60.6429 7.72L60.7403 7.95027L60.744 7.94863L60.6429 7.72ZM68.7789 7.576L68.6868 7.80852L68.6927 7.81067L68.7789 7.576ZM71.6589 9.448L71.8436 9.27956L71.8436 9.27956L71.6589 9.448ZM73.0269 12.292L73.0913 12.5336L73.3084 12.4756L73.2739 12.2536L73.0269 12.292ZM71.9469 12.58L71.6987 12.61L71.7332 12.8957L72.0113 12.8216L71.9469 12.58ZM69.7149 9.232L69.5789 9.44179L69.5807 9.44291L69.7149 9.232ZM61.1829 8.656L61.2757 8.88816L61.2801 8.88631L61.1829 8.656ZM58.6269 10.492L58.4305 10.3373L58.4299 10.3381L58.6269 10.492ZM59.3469 16.396L59.199 16.5976L59.2011 16.5991L59.3469 16.396ZM64.1349 18.484L64.0658 18.7243L64.0667 18.7245L64.1349 18.484ZM66.2949 19.096L66.2267 19.3365L66.2276 19.3368L66.2949 19.096ZM71.5149 21.58L71.3555 21.7727L71.3578 21.7745L71.5149 21.58ZM72.3069 29.068L72.5069 29.218L72.5086 29.2156L72.3069 29.068ZM69.2829 31.336L69.1849 31.106L69.1834 31.1067L69.2829 31.336ZM59.7429 33.676L59.6494 33.9079L59.6539 33.9096L59.7429 33.676ZM56.0349 31.192L55.848 31.3581L55.852 31.3624L56.0349 31.192ZM54.1629 27.376L54.0964 27.135L53.8728 27.1967L53.9176 27.4243L54.1629 27.376ZM55.2069 27.088L55.4527 27.0425L55.4031 26.7745L55.1404 26.847L55.2069 27.088ZM56.8269 30.472L56.6387 30.6367L56.6432 30.6416L56.8269 30.472ZM60.1749 32.668L60.0849 32.9012L60.0849 32.9012L60.1749 32.668ZM69.9669 32.488L70.0681 32.7166L70.0698 32.7158L69.9669 32.488ZM73.4229 29.752L73.2194 29.6067L73.2189 29.6075L73.4229 29.752ZM72.5589 20.788L72.7224 20.5989L72.7224 20.5989L72.5589 20.788ZM66.5829 17.836L66.6524 17.5959L66.6521 17.5958L66.5829 17.836ZM64.4589 17.224L64.5281 16.9838L64.528 16.9837L64.4589 17.224ZM60.4269 15.568L60.5618 15.3575L60.5618 15.3575L60.4269 15.568ZM60.6789 10.348L60.8122 10.5595L60.8154 10.5574L60.6789 10.348ZM70.6869 12.904L70.7534 13.145L70.9635 13.087L70.9347 12.871L70.6869 12.904ZM69.6429 13.192L69.3933 13.2063L69.4109 13.5153L69.7094 13.433L69.6429 13.192ZM68.2389 11.14L68.1085 11.3533L68.1111 11.3549L68.2389 11.14ZM61.4709 11.104L61.3523 10.8839L61.35 10.8852L61.4709 11.104ZM61.3629 14.884L61.2436 15.1037L61.2462 15.1051L61.3629 14.884ZM64.7469 16.18L64.8183 15.9404L64.8172 15.9401L64.7469 16.18ZM66.7989 16.792L66.7274 17.0316L66.7276 17.0316L66.7989 16.792ZM73.4589 20.176L73.291 20.3613L73.2926 20.3627L73.4589 20.176ZM74.3589 30.328L74.1537 30.1851L74.1532 30.1859L74.3589 30.328ZM70.5069 33.424L70.4044 33.196L70.4032 33.1965L70.5069 33.424ZM64.8189 29.538C63.1451 29.538 61.7884 29.2196 60.7334 28.6004L60.4803 29.0316C61.6334 29.7084 63.0847 30.038 64.8189 30.038V29.538ZM60.7369 28.6025C59.688 27.964 59.1438 27.1412 59.0559 26.1303L58.5578 26.1737C58.6619 27.3708 59.3178 28.324 60.4769 29.0295L60.7369 28.6025ZM58.8734 26.393L59.9174 26.105L59.7844 25.623L58.7404 25.911L58.8734 26.393ZM59.6009 25.864C59.6009 26.7941 60.1287 27.5484 61.0894 28.1299L61.3483 27.7021C60.4851 27.1796 60.1009 26.5659 60.1009 25.864H59.6009ZM61.096 28.1337C62.0807 28.6892 63.3268 28.958 64.8189 28.958V28.458C63.383 28.458 62.2291 28.1988 61.3417 27.6983L61.096 28.1337ZM64.8189 28.958C66.3589 28.958 67.6312 28.6772 68.6179 28.0953L68.3639 27.6647C67.4786 28.1868 66.3029 28.458 64.8189 28.458V28.958ZM68.6155 28.0967C69.6278 27.5146 70.1809 26.7352 70.1809 25.756H69.6809C69.6809 26.5048 69.2739 27.1414 68.3663 27.6633L68.6155 28.0967ZM70.1809 25.756C70.1809 24.8404 69.7285 24.1069 68.8771 23.5651L68.6087 23.9869C69.3413 24.4531 69.6809 25.0396 69.6809 25.756H70.1809ZM68.8771 23.5651C68.0568 23.0431 66.9512 22.5909 65.5704 22.2033L65.4353 22.6847C66.7905 23.0651 67.845 23.5009 68.6087 23.9869L68.8771 23.5651ZM65.5726 22.2039L63.3406 21.5559L63.2012 22.0361L65.4332 22.6841L65.5726 22.2039ZM63.3406 21.5559C60.3824 20.6971 58.177 19.6183 56.7033 18.3317L56.3745 18.7083C57.9247 20.0617 60.2073 21.1669 63.2012 22.0361L63.3406 21.5559ZM56.7033 18.3317C55.254 17.0664 54.5209 15.3277 54.5209 13.084H54.0209C54.0209 15.4483 54.7997 17.3336 56.3745 18.7083L56.7033 18.3317ZM54.5209 13.084C54.5209 11.477 54.9623 10.0647 55.842 8.83767L55.4357 8.54633C54.4914 9.86334 54.0209 11.379 54.0209 13.084H54.5209ZM55.8415 8.83837C56.7504 7.57994 57.9758 6.586 59.5252 5.85828L59.3126 5.40572C57.6939 6.166 56.3993 7.21206 55.4362 8.54563L55.8415 8.83837ZM59.5239 5.85889C61.0947 5.13208 62.8701 4.766 64.8549 4.766V4.266C62.8076 4.266 60.9591 4.64391 59.3139 5.40511L59.5239 5.85889ZM64.8549 4.766C66.6513 4.766 68.2624 5.06139 69.6921 5.64733L69.8817 5.18467C68.3834 4.5706 66.7065 4.266 64.8549 4.266V4.766ZM69.6966 5.64914C71.1515 6.21231 72.3411 7.0188 73.272 8.06609L73.6457 7.73391C72.6567 6.6212 71.3983 5.77169 69.8771 5.18286L69.6966 5.64914ZM73.2741 8.06837C74.2265 9.11373 74.8294 10.331 75.085 11.7251L75.5768 11.6349C75.3044 10.149 74.6592 8.84627 73.6437 7.73163L73.2741 8.06837ZM75.2644 11.439L74.2204 11.727L74.3534 12.209L75.3974 11.921L75.2644 11.439ZM74.5333 11.9261C74.3094 10.6074 73.7484 9.44793 72.8527 8.45276L72.4811 8.78724C73.3134 9.71207 73.8323 10.7846 74.0404 12.0099L74.5333 11.9261ZM72.8527 8.45276C71.9598 7.46065 70.8221 6.69581 69.4463 6.15531L69.2635 6.62069C70.5756 7.13619 71.6459 7.85934 72.4811 8.78724L72.8527 8.45276ZM69.4463 6.15531C68.0692 5.61432 66.5376 5.346 64.8549 5.346V5.846C66.4841 5.846 67.9525 6.10568 69.2635 6.62069L69.4463 6.15531ZM64.8549 5.346C62.9997 5.346 61.3308 5.68788 59.8532 6.37745L60.0646 6.83054C61.4669 6.17612 63.062 5.846 64.8549 5.846V5.346ZM59.8548 6.37667C58.4048 7.04024 57.2421 7.95348 56.3744 9.11868L56.7754 9.41732C57.5877 8.32652 58.6809 7.46376 60.0629 6.83133L59.8548 6.37667ZM56.3723 9.12147C55.5238 10.2944 55.1009 11.6423 55.1009 13.156H55.6009C55.6009 11.7417 55.9939 10.4976 56.7774 9.41453L56.3723 9.12147ZM55.1009 13.156C55.1009 15.1894 55.8111 16.8443 57.238 18.0959L57.5677 17.7201C56.2586 16.5717 55.6009 15.0586 55.6009 13.156H55.1009ZM57.2415 18.099C58.6722 19.3076 60.7629 20.2802 63.4927 21.0291L63.625 20.5469C60.9309 19.8078 58.9175 18.8604 57.5642 17.717L57.2415 18.099ZM63.4928 21.0291L65.7248 21.6411L65.857 21.1589L63.625 20.5469L63.4928 21.0291ZM65.7245 21.641C67.3658 22.093 68.619 22.6352 69.4981 23.2598L69.7877 22.8522C68.8427 22.1808 67.5279 21.619 65.8572 21.159L65.7245 21.641ZM69.4981 23.2598C70.3451 23.8617 70.7609 24.6622 70.7609 25.684H71.2609C71.2609 24.4978 70.7646 23.5463 69.7877 22.8522L69.4981 23.2598ZM70.7609 25.684C70.7609 26.8147 70.247 27.7376 69.1782 28.4654L69.4596 28.8786C70.6468 28.0704 71.2609 27.0013 71.2609 25.684H70.7609ZM69.1812 28.4633C68.107 29.1718 66.6602 29.538 64.8189 29.538V30.038C66.7216 30.038 68.2747 29.6602 69.4565 28.8807L69.1812 28.4633ZM64.8189 31.914C62.5993 31.914 60.7529 31.4302 59.2657 30.4775L58.996 30.8985C60.5809 31.9138 62.5264 32.414 64.8189 32.414V31.914ZM59.2696 30.48C57.8079 29.5055 56.965 28.2548 56.7136 26.7235L56.2202 26.8045C56.4968 28.4892 57.4299 29.8545 58.9922 30.896L59.2696 30.48ZM56.5313 27.0056L57.6113 26.7176L57.4825 26.2344L56.4025 26.5224L56.5313 27.0056ZM57.2992 26.5102C57.5022 27.9818 58.2927 29.1587 59.6429 30.0338L59.9148 29.6142C58.673 28.8093 57.9755 27.7542 57.7945 26.4418L57.2992 26.5102ZM59.6447 30.0349C61.0153 30.9071 62.7455 31.334 64.8189 31.334V30.834C62.8122 30.834 61.1825 30.4209 59.9131 29.6131L59.6447 30.0349ZM64.8189 31.334C66.332 31.334 67.673 31.1022 68.8366 30.6318L68.6492 30.1682C67.5568 30.6098 66.2817 30.834 64.8189 30.834V31.334ZM68.8366 30.6318C69.9984 30.1621 70.9136 29.5015 71.5695 28.6439L71.1723 28.3401C70.5801 29.1145 69.7434 29.7259 68.6492 30.1682L68.8366 30.6318ZM71.5695 28.6439C72.2278 27.783 72.5569 26.7932 72.5569 25.684H72.0569C72.0569 26.6868 71.7619 27.569 71.1723 28.3401L71.5695 28.6439ZM72.5569 25.684C72.5569 24.147 71.9723 22.9193 70.8023 22.029L70.4995 22.427C71.5375 23.2167 72.0569 24.293 72.0569 25.684H72.5569ZM70.805 22.0311C69.6659 21.1397 68.1076 20.432 66.1444 19.8987L66.0133 20.3813C67.9381 20.904 69.4279 21.5883 70.4968 22.4249L70.805 22.0311ZM66.146 19.8992L63.95 19.2872L63.8158 19.7688L66.0118 20.3808L66.146 19.8992ZM63.9499 19.2872C61.6389 18.6439 59.8857 17.8394 58.6737 16.8837L58.3641 17.2763C59.648 18.2886 61.4709 19.1161 63.8158 19.7688L63.9499 19.2872ZM58.6737 16.8837C57.4876 15.9486 56.8969 14.7138 56.8969 13.156H56.3969C56.3969 14.8622 57.0541 16.2434 58.3641 17.2763L58.6737 16.8837ZM56.8969 13.156C56.8969 11.9829 57.2292 10.9558 57.8915 10.0652L57.4903 9.76682C56.7605 10.7482 56.3969 11.8811 56.3969 13.156H56.8969ZM57.889 10.0684C58.5791 9.17139 59.5261 8.46394 60.7403 7.95024L60.5455 7.48976C59.2637 8.03206 58.2427 8.7886 57.4927 9.76357L57.889 10.0684ZM60.744 7.94863C61.9559 7.4126 63.3247 7.142 64.8549 7.142V6.642C63.265 6.642 61.8259 6.9234 60.5417 7.49137L60.744 7.94863ZM64.8549 7.142C66.293 7.142 67.569 7.36595 68.6869 7.80845L68.8709 7.34355C67.6848 6.87405 66.3448 6.642 64.8549 6.642V7.142ZM68.6927 7.81067C69.8361 8.2307 70.7606 8.83389 71.4741 9.61644L71.8436 9.27956C71.0691 8.43011 70.0736 7.7853 68.8651 7.34133L68.6927 7.81067ZM71.4741 9.61644C72.1854 10.3966 72.6195 11.2995 72.7798 12.3304L73.2739 12.2536C73.0983 11.1245 72.6203 10.1314 71.8436 9.27956L71.4741 9.61644ZM72.9625 12.0504L71.8825 12.3384L72.0113 12.8216L73.0913 12.5336L72.9625 12.0504ZM72.1951 12.55C72.017 11.0745 71.224 9.89602 69.8491 9.02108L69.5807 9.44291C70.8458 10.248 71.5408 11.3015 71.6987 12.61L72.1951 12.55ZM69.8508 9.02221C68.505 8.14993 66.8347 7.722 64.8549 7.722V8.222C66.7631 8.222 68.3327 8.63407 69.5789 9.44179L69.8508 9.02221ZM64.8549 7.722C63.459 7.722 62.2011 7.95471 61.0856 8.42569L61.2801 8.88631C62.3246 8.44529 63.5148 8.222 64.8549 8.222V7.722ZM61.09 8.42388C59.9757 8.86962 59.0856 9.50586 58.4305 10.3373L58.8232 10.6467C59.4162 9.89414 60.2301 9.30637 61.2757 8.88812L61.09 8.42388ZM58.4299 10.3381C57.7943 11.1516 57.4769 12.0943 57.4769 13.156H57.9769C57.9769 12.2017 58.2595 11.3684 58.8239 10.6459L58.4299 10.3381ZM57.4769 13.156C57.4769 14.6016 58.0532 15.7573 59.199 16.5976L59.4947 16.1944C58.4805 15.4507 57.9769 14.4464 57.9769 13.156H57.4769ZM59.2011 16.5991C60.3381 17.4148 61.9648 18.1205 64.0658 18.7243L64.2039 18.2437C62.129 17.6475 60.5637 16.9612 59.4926 16.1929L59.2011 16.5991ZM64.0667 18.7245L66.2267 19.3365L66.363 18.8555L64.203 18.2435L64.0667 18.7245ZM66.2276 19.3368C68.4393 19.9551 70.1435 20.7704 71.3556 21.7727L71.6742 21.3873C70.3902 20.3256 68.6144 19.4849 66.3622 18.8552L66.2276 19.3368ZM71.3578 21.7745C72.542 22.731 73.1369 24.0249 73.1369 25.684H73.6369C73.6369 23.8871 72.9837 22.445 71.672 21.3855L71.3578 21.7745ZM73.1369 25.684C73.1369 26.9054 72.7924 27.9811 72.1051 28.9204L72.5086 29.2156C73.2614 28.1869 73.6369 27.0066 73.6369 25.684H73.1369ZM72.1069 28.918C71.4175 29.8371 70.4475 30.5682 69.1849 31.106L69.3808 31.566C70.7102 30.9998 71.7562 30.2189 72.5069 29.218L72.1069 28.918ZM69.1834 31.1067C67.9491 31.6423 66.4963 31.914 64.8189 31.914V32.414C66.5495 32.414 68.0727 32.1337 69.3824 31.5653L69.1834 31.1067ZM64.8189 34.29C62.9726 34.29 61.3114 34.006 59.8319 33.4424L59.6539 33.9096C61.1984 34.498 62.9212 34.79 64.8189 34.79V34.29ZM59.8364 33.4441C58.3785 32.8563 57.1742 32.0479 56.2178 31.0216L55.852 31.3624C56.8636 32.4481 58.1313 33.2957 59.6494 33.9079L59.8364 33.4441ZM56.2217 31.0259C55.2924 29.9804 54.6879 28.7494 54.4082 27.3277L53.9176 27.4243C54.2139 28.9306 54.8574 30.2436 55.848 31.3581L56.2217 31.0259ZM54.2294 27.617L55.2734 27.329L55.1404 26.847L54.0964 27.135L54.2294 27.617ZM54.9611 27.1335C55.2089 28.4721 55.7681 29.6417 56.6387 30.6366L57.015 30.3074C56.2056 29.3823 55.6848 28.2959 55.4527 27.0425L54.9611 27.1335ZM56.6432 30.6416C57.5368 31.6096 58.6866 32.3615 60.0849 32.9012L60.2649 32.4348C58.9272 31.9185 57.845 31.2064 57.0106 30.3024L56.6432 30.6416ZM60.0849 32.9012C61.4862 33.4421 63.0655 33.71 64.8189 33.71V33.21C63.1163 33.21 61.5995 32.9499 60.2649 32.4348L60.0849 32.9012ZM64.8189 33.71C66.8139 33.71 68.5658 33.3816 70.0681 32.7166L69.8657 32.2594C68.44 32.8904 66.7598 33.21 64.8189 33.21V33.71ZM70.0698 32.7158C71.5919 32.0284 72.7814 31.0901 73.6269 29.8965L73.2189 29.6075C72.4324 30.7179 71.3179 31.6036 69.864 32.2602L70.0698 32.7158ZM73.6263 29.8973C74.4986 28.6762 74.9329 27.2686 74.9329 25.684H74.4329C74.4329 27.1714 74.0272 28.4758 73.2194 29.6067L73.6263 29.8973ZM74.9329 25.684C74.9329 23.5788 74.1986 21.875 72.7224 20.5989L72.3954 20.9771C73.7511 22.149 74.4329 23.7092 74.4329 25.684H74.9329ZM72.7224 20.5989C71.27 19.3434 69.2413 18.3459 66.6524 17.5959L66.5133 18.0761C69.0604 18.8141 71.0157 19.7845 72.3954 20.9771L72.7224 20.5989ZM66.6521 17.5958L64.5281 16.9838L64.3897 17.4642L66.5137 18.0762L66.6521 17.5958ZM64.528 16.9837C62.7864 16.4827 61.4686 15.9388 60.5618 15.3575L60.292 15.7785C61.2571 16.3972 62.6273 16.9573 64.3898 17.4643L64.528 16.9837ZM60.5618 15.3575C59.6887 14.7979 59.2729 14.0689 59.2729 13.156H58.7729C58.7729 14.2591 59.293 15.1381 60.292 15.7785L60.5618 15.3575ZM59.2729 13.156C59.2729 12.0765 59.7713 11.2157 60.8122 10.5595L60.5456 10.1365C59.3784 10.8723 58.7729 11.8835 58.7729 13.156H59.2729ZM60.8154 10.5574C61.869 9.8703 63.2101 9.518 64.8549 9.518V9.018C63.1396 9.018 61.6967 9.3857 60.5423 10.1386L60.8154 10.5574ZM64.8549 9.518C66.4535 9.518 67.7473 9.84712 68.7527 10.4869L69.0211 10.0651C67.9145 9.36088 66.5202 9.018 64.8549 9.018V9.518ZM68.7527 10.4869C69.7567 11.1259 70.3063 11.9415 70.4391 12.937L70.9347 12.871C70.7794 11.7065 70.129 10.7701 69.0211 10.0651L68.7527 10.4869ZM70.6204 12.663L69.5764 12.951L69.7094 13.433L70.7534 13.145L70.6204 12.663ZM69.8925 13.1777C69.8386 12.2354 69.3076 11.4846 68.3666 10.9251L68.1111 11.3549C68.9462 11.8514 69.3511 12.4686 69.3933 13.2063L69.8925 13.1777ZM68.3692 10.9267C67.4539 10.3673 66.2763 10.098 64.8549 10.098V10.598C66.2174 10.598 67.2958 10.8567 68.1085 11.3533L68.3692 10.9267ZM64.8549 10.098C63.5033 10.098 62.3326 10.3561 61.3524 10.8839L61.5894 11.3241C62.4812 10.8439 63.5664 10.598 64.8549 10.598V10.098ZM61.35 10.8852C60.384 11.419 59.8529 12.151 59.8529 13.084H60.3529C60.3529 12.385 60.7337 11.797 61.5918 11.3228L61.35 10.8852ZM59.8529 13.084C59.8529 13.9466 60.3498 14.6185 61.2436 15.1037L61.4821 14.6643C60.6959 14.2375 60.3529 13.7094 60.3529 13.084H59.8529ZM61.2462 15.1051C62.1302 15.5717 63.2754 16.0092 64.6766 16.4199L64.8172 15.9401C63.4343 15.5348 62.3235 15.1083 61.4796 14.6629L61.2462 15.1051ZM64.6754 16.4196L66.7274 17.0316L66.8703 16.5524L64.8183 15.9404L64.6754 16.4196ZM66.7276 17.0316C69.611 17.8895 71.7925 19.0032 73.291 20.3612L73.6268 19.9908C72.0533 18.5648 69.7948 17.4225 66.8702 16.5524L66.7276 17.0316ZM73.2926 20.3627C74.7674 21.6762 75.5129 23.464 75.5129 25.756H76.0129C76.0129 23.344 75.2223 21.4118 73.6251 19.9893L73.2926 20.3627ZM75.5129 25.756C75.5129 27.4111 75.0593 28.8848 74.1537 30.1851L74.564 30.4709C75.5305 29.0832 76.0129 27.5089 76.0129 25.756H75.5129ZM74.1532 30.1859C73.2704 31.4636 72.0244 32.4681 70.4044 33.196L70.6093 33.652C72.3013 32.8919 73.6234 31.8324 74.5646 30.4701L74.1532 30.1859ZM70.4032 33.1965C68.8097 33.923 66.9503 34.29 64.8189 34.29V34.79C67.0075 34.79 68.9401 34.413 70.6106 33.6515L70.4032 33.1965ZM91.0755 20.356L90.8661 20.4925L90.9401 20.606H91.0755V20.356ZM81.1035 5.056V4.806H80.6422L80.8941 5.19251L81.1035 5.056ZM82.3995 5.056L82.6087 4.91915L82.5347 4.806H82.3995V5.056ZM92.4075 20.356V20.606H92.8698L92.6167 20.2191L92.4075 20.356ZM85.3875 20.356L85.1781 20.4925L85.2521 20.606H85.3875V20.356ZM75.4155 5.056V4.806H74.9542L75.2061 5.19251L75.4155 5.056ZM76.7115 5.056L76.921 4.91949L76.847 4.806H76.7115V5.056ZM86.6835 20.356V20.606H87.1449L86.893 20.2195L86.6835 20.356ZM88.2675 20.356L88.0583 20.4929L88.1323 20.606H88.2675V20.356ZM78.2595 5.056V4.806H77.7973L78.0503 5.19285L78.2595 5.056ZM79.5555 5.056L79.765 4.91949L79.691 4.806H79.5555V5.056ZM89.5275 20.356V20.606H89.9889L89.737 20.2195L89.5275 20.356ZM90.2835 14.704L90.0767 14.8444L90.2863 15.1534L90.4921 14.8418L90.2835 14.704ZM89.5995 13.696L89.3915 13.5573L89.2982 13.6972L89.3927 13.8364L89.5995 13.696ZM95.3595 5.056V4.806H95.2257L95.1515 4.91732L95.3595 5.056ZM96.6555 5.056L96.8641 5.19377L97.1202 4.806H96.6555V5.056ZM91.7235 16.936L91.5111 17.0678L91.7179 17.401L91.9327 17.0729L91.7235 16.936ZM91.0755 15.892L90.8667 15.7546L90.7789 15.8881L90.8631 16.0238L91.0755 15.892ZM98.2035 5.056V4.806H98.0687L97.9947 4.91861L98.2035 5.056ZM99.4995 5.056L99.7087 5.19291L99.962 4.806H99.4995V5.056ZM93.1635 19.132L92.9567 19.2724L93.1677 19.5833L93.3729 19.2686L93.1635 19.132ZM92.4795 18.124L92.2705 17.9869L92.179 18.1264L92.2727 18.2644L92.4795 18.124ZM101.048 5.056V4.806H100.913L100.838 4.91892L101.048 5.056ZM102.344 5.056L102.553 5.19257L102.805 4.806H102.344V5.056ZM90.7155 34H90.4655V34.25H90.7155V34ZM90.7155 21.688V21.438H90.4655V21.688H90.7155ZM91.7955 21.688H92.0455V21.438H91.7955V21.688ZM91.7955 34V34.25H92.0455V34H91.7955ZM85.9635 34H85.7135V34.25H85.9635V34ZM85.9635 21.688V21.438H85.7135V21.688H85.9635ZM87.0435 21.688H87.2935V21.438H87.0435V21.688ZM87.0435 34V34.25H87.2935V34H87.0435ZM88.3395 34H88.0895V34.25H88.3395V34ZM88.3395 21.688V21.438H88.0895V21.688H88.3395ZM89.4195 21.688H89.6695V21.438H89.4195V21.688ZM89.4195 34V34.25H89.6695V34H89.4195ZM91.285 20.2195L81.313 4.91949L80.8941 5.19251L90.8661 20.4925L91.285 20.2195ZM81.1035 5.306H82.3995V4.806H81.1035V5.306ZM82.1903 5.19285L92.1983 20.4929L92.6167 20.2191L82.6087 4.91915L82.1903 5.19285ZM92.4075 20.106H91.0755V20.606H92.4075V20.106ZM85.597 20.2195L75.625 4.91949L75.2061 5.19251L85.1781 20.4925L85.597 20.2195ZM75.4155 5.306H76.7115V4.806H75.4155V5.306ZM76.5021 5.19251L86.4741 20.4925L86.893 20.2195L76.921 4.91949L76.5021 5.19251ZM86.6835 20.106H85.3875V20.606H86.6835V20.106ZM88.4767 20.2191L78.4687 4.91915L78.0503 5.19285L88.0583 20.4929L88.4767 20.2191ZM78.2595 5.306H79.5555V4.806H78.2595V5.306ZM79.3461 5.19251L89.3181 20.4925L89.737 20.2195L79.765 4.91949L79.3461 5.19251ZM89.5275 20.106H88.2675V20.606H89.5275V20.106ZM90.4904 14.5636L89.8064 13.5556L89.3927 13.8364L90.0767 14.8444L90.4904 14.5636ZM89.8075 13.8347L95.5675 5.19467L95.1515 4.91732L89.3915 13.5573L89.8075 13.8347ZM95.3595 5.306H96.6555V4.806H95.3595V5.306ZM96.4469 4.91822L90.0749 14.5662L90.4921 14.8418L96.8641 5.19377L96.4469 4.91822ZM91.9359 16.8042L91.2879 15.7602L90.8631 16.0238L91.5111 17.0678L91.9359 16.8042ZM91.2844 16.0294L98.4124 5.19339L97.9947 4.91861L90.8667 15.7546L91.2844 16.0294ZM98.2035 5.306H99.4995V4.806H98.2035V5.306ZM99.2904 4.91908L91.5144 16.7991L91.9327 17.0729L99.7087 5.19291L99.2904 4.91908ZM93.3704 18.9916L92.6864 17.9836L92.2727 18.2644L92.9567 19.2724L93.3704 18.9916ZM92.6886 18.2611L101.257 5.19308L100.838 4.91892L92.2705 17.9869L92.6886 18.2611ZM101.048 5.306H102.344V4.806H101.048V5.306ZM102.134 4.91943L92.9541 18.9954L93.3729 19.2686L102.553 5.19257L102.134 4.91943ZM90.9655 34V21.688H90.4655V34H90.9655ZM90.7155 21.938H91.7955V21.438H90.7155V21.938ZM91.5455 21.688V34H92.0455V21.688H91.5455ZM91.7955 33.75H90.7155V34.25H91.7955V33.75ZM86.2135 34V21.688H85.7135V34H86.2135ZM85.9635 21.938H87.0435V21.438H85.9635V21.938ZM86.7935 21.688V34H87.2935V21.688H86.7935ZM87.0435 33.75H85.9635V34.25H87.0435V33.75ZM88.5895 34V21.688H88.0895V34H88.5895ZM88.3395 21.938H89.4195V21.438H88.3395V21.938ZM89.1695 21.688V34H89.6695V21.688H89.1695ZM89.4195 33.75H88.3395V34.25H89.4195V33.75Z" fill="url(#paint0_linear_2_2)" fill-opacity="0.5" style="" mask="url(#path-1-outside-1_2_2)"/>
</g>
<defs>
<filter id="filter0_i_2_2" x="2.1125" y="4.516" width="100.231" height="31.024" filterUnits="userSpaceOnUse" color-interpolation-filters="sRGB">
<feFlood flood-opacity="0" result="BackgroundImageFix"/>
<feBlend mode="normal" in="SourceGraphic" in2="BackgroundImageFix" result="shape"/>
<feColorMatrix in="SourceAlpha" type="matrix" values="0 0 0 0 0 0 0 0 0 0 0 0 0 0 0 0 0 0 127 0" result="hardAlpha"/>
<feOffset dy="1"/>
<feGaussianBlur stdDeviation="2"/>
<feComposite in2="hardAlpha" operator="arithmetic" k2="-1" k3="1"/>
<feColorMatrix type="matrix" values="0 0 0 0 0.0470588 0 0 0 0 0.0470588 0 0 0 0 0.0509804 0 0 0 0.05 0"/>
<feBlend mode="normal" in2="shape" result="effect1_innerShadow_2_2"/>
</filter>
<linearGradient id="paint0_linear_2_2" x1="51.5" y1="0" x2="51.5" y2="43" gradientUnits="userSpaceOnUse">
<stop stop-color="#3579F6" style="stop-color:#3579F6;stop-color:color(display-p3 0.2078 0.4745 0.9647);stop-opacity:1;"/>
<stop offset="1" stop-color="#F09235" style="stop-color:#F09235;stop-color:color(display-p3 0.9412 0.5725 0.2078);stop-opacity:1;"/>
</linearGradient>
</defs>
</svg>
