<svg width="101" height="31" viewBox="0 0 101 31" fill="none" xmlns="http://www.w3.org/2000/svg">
<g opacity="0.4">
<mask id="path-1-outside-1_1_2" maskUnits="userSpaceOnUse" x="-1" y="0" width="102" height="31" fill="black">
<rect fill="white" x="-1" width="102" height="31"/>
<path d="M4.8645 30V1.056H5.9445V30H4.8645ZM0.1125 30V1.056H1.1925V30H0.1125ZM2.4885 30V1.056H3.5685V30H2.4885ZM7.2405 2.136V1.056H21.6045V2.136H7.2405ZM7.2405 4.512V3.432H21.6045V4.512H7.2405ZM7.2405 6.888V5.808H21.6045V6.888H7.2405ZM7.2405 13.692V12.612H19.5525V13.692H7.2405ZM7.2405 16.068V14.988H19.5525V16.068H7.2405ZM7.2405 18.444V17.364H19.5525V18.444H7.2405ZM7.2405 25.248V24.168H21.6045V25.248H7.2405ZM7.2405 27.624V26.544H21.6045V27.624H7.2405ZM7.2405 30V28.92H21.6045V30H7.2405ZM28.4358 30L38.9118 1.056H40.0638L29.5878 30H28.4358ZM23.3958 30L33.8718 1.056H34.9878L24.5478 30H23.3958ZM25.9158 30L36.3558 1.056H37.5438L27.0678 30H25.9158ZM49.5318 30L40.1358 4.044L40.7118 2.424L50.6838 30H49.5318ZM47.0118 30L38.9118 7.572L39.4518 5.916L48.1638 30H47.0118ZM44.4918 30L37.6518 11.064L38.2278 9.444L45.6438 30H44.4918ZM34.3038 20.424L34.6998 19.344H39.4518L39.8478 20.424H34.3038ZM33.4398 22.836L33.8358 21.756H40.3158L40.7118 22.836H33.4398ZM32.5758 25.212L32.9718 24.132H41.1798L41.5758 25.212H32.5758Z"/>
<path d="M62.8189 25.788C61.1149 25.788 59.7109 25.464 58.6069 24.816C57.5029 24.144 56.9029 23.256 56.8069 22.152L57.8509 21.864C57.8509 22.68 58.3069 23.364 59.2189 23.916C60.1549 24.444 61.3549 24.708 62.8189 24.708C64.3309 24.708 65.5549 24.432 66.4909 23.88C67.4509 23.328 67.9309 22.62 67.9309 21.756C67.9309 20.94 67.5349 20.28 66.7429 19.776C65.9509 19.272 64.8709 18.828 63.5029 18.444L61.2709 17.796C58.2949 16.932 56.0509 15.84 54.5389 14.52C53.0269 13.2 52.2709 11.388 52.2709 9.084C52.2709 7.428 52.7269 5.964 53.6389 4.692C54.5749 3.396 55.8349 2.376 57.4189 1.632C59.0269 0.887998 60.8389 0.515998 62.8549 0.515998C64.6789 0.515998 66.3229 0.815998 67.7869 1.416C69.2749 1.992 70.4989 2.82 71.4589 3.9C72.4429 4.98 73.0669 6.24 73.3309 7.68L72.2869 7.968C72.0709 6.696 71.5309 5.58 70.6669 4.62C69.8029 3.66 68.6989 2.916 67.3549 2.388C66.0109 1.86 64.5109 1.596 62.8549 1.596C61.0309 1.596 59.3989 1.932 57.9589 2.604C56.5429 3.252 55.4149 4.14 54.5749 5.268C53.7589 6.396 53.3509 7.692 53.3509 9.156C53.3509 11.124 54.0349 12.708 55.4029 13.908C56.7949 15.084 58.8469 16.044 61.5589 16.788L63.7909 17.4C65.4469 17.856 66.7309 18.408 67.6429 19.056C68.5549 19.704 69.0109 20.58 69.0109 21.684C69.0109 22.908 68.4469 23.904 67.3189 24.672C66.1909 25.416 64.6909 25.788 62.8189 25.788ZM62.8189 28.164C60.5629 28.164 58.6669 27.672 57.1309 26.688C55.6189 25.68 54.7309 24.372 54.4669 22.764L55.5469 22.476C55.7389 23.868 56.4829 24.984 57.7789 25.824C59.0989 26.664 60.7789 27.084 62.8189 27.084C64.3069 27.084 65.6149 26.856 66.7429 26.4C67.8709 25.944 68.7469 25.308 69.3709 24.492C69.9949 23.676 70.3069 22.74 70.3069 21.684C70.3069 20.22 69.7549 19.068 68.6509 18.228C67.5469 17.364 66.0229 16.668 64.0789 16.14L61.8829 15.528C59.5549 14.88 57.7669 14.064 56.5189 13.08C55.2709 12.096 54.6469 10.788 54.6469 9.156C54.6469 7.932 54.9949 6.852 55.6909 5.916C56.4109 4.98 57.3949 4.248 58.6429 3.72C59.8909 3.168 61.2949 2.892 62.8549 2.892C64.3189 2.892 65.6269 3.12 66.7789 3.576C67.9549 4.008 68.9149 4.632 69.6589 5.448C70.4029 6.264 70.8589 7.212 71.0269 8.292L69.9469 8.58C69.7789 7.188 69.0349 6.072 67.7149 5.232C66.4189 4.392 64.7989 3.972 62.8549 3.972C61.4869 3.972 60.2629 4.2 59.1829 4.656C58.1029 5.088 57.2509 5.7 56.6269 6.492C56.0269 7.26 55.7269 8.148 55.7269 9.156C55.7269 10.524 56.2669 11.604 57.3469 12.396C58.4509 13.188 60.0469 13.884 62.1349 14.484L64.2949 15.096C66.5269 15.72 68.2669 16.548 69.5149 17.58C70.7629 18.588 71.3869 19.956 71.3869 21.684C71.3869 22.956 71.0269 24.084 70.3069 25.068C69.5869 26.028 68.5789 26.784 67.2829 27.336C66.0109 27.888 64.5229 28.164 62.8189 28.164ZM62.8189 30.54C60.9469 30.54 59.2549 30.252 57.7429 29.676C56.2549 29.076 55.0189 28.248 54.0349 27.192C53.0749 26.112 52.4509 24.84 52.1629 23.376L53.2069 23.088C53.4469 24.384 53.9869 25.512 54.8269 26.472C55.6909 27.408 56.8069 28.14 58.1749 28.668C59.5429 29.196 61.0909 29.46 62.8189 29.46C64.7869 29.46 66.5029 29.136 67.9669 28.488C69.4549 27.816 70.6069 26.904 71.4229 25.752C72.2629 24.576 72.6829 23.22 72.6829 21.684C72.6829 19.644 71.9749 18.012 70.5589 16.788C69.1429 15.564 67.1509 14.58 64.5829 13.836L62.4589 13.224C60.7069 12.72 59.3629 12.168 58.4269 11.568C57.4909 10.968 57.0229 10.164 57.0229 9.156C57.0229 7.98 57.5749 7.044 58.6789 6.348C59.7829 5.628 61.1749 5.268 62.8549 5.268C64.4869 5.268 65.8309 5.604 66.8869 6.276C67.9429 6.948 68.5429 7.824 68.6869 8.904L67.6429 9.192C67.5949 8.352 67.1269 7.668 66.2389 7.14C65.3749 6.612 64.2469 6.348 62.8549 6.348C61.5349 6.348 60.4069 6.6 59.4709 7.104C58.5589 7.608 58.1029 8.268 58.1029 9.084C58.1029 9.828 58.5229 10.428 59.3629 10.884C60.2269 11.34 61.3549 11.772 62.7469 12.18L64.7989 12.792C67.7029 13.656 69.9229 14.784 71.4589 16.176C72.9949 17.544 73.7629 19.404 73.7629 21.756C73.7629 23.46 73.2949 24.984 72.3589 26.328C71.4469 27.648 70.1629 28.68 68.5069 29.424C66.8749 30.168 64.9789 30.54 62.8189 30.54ZM89.0755 16.356L79.1035 1.056H80.3995L90.4075 16.356H89.0755ZM83.3875 16.356L73.4155 1.056H74.7115L84.6835 16.356H83.3875ZM86.2675 16.356L76.2595 1.056H77.5555L87.5275 16.356H86.2675ZM88.2835 10.704L87.5995 9.696L93.3595 1.056H94.6555L88.2835 10.704ZM89.7235 12.936L89.0755 11.892L96.2035 1.056H97.4995L89.7235 12.936ZM91.1635 15.132L90.4795 14.124L99.0475 1.056H100.344L91.1635 15.132ZM88.7155 30V17.688H89.7955V30H88.7155ZM83.9635 30V17.688H85.0435V30H83.9635ZM86.3395 30V17.688H87.4195V30H86.3395Z"/>
</mask>
<g filter="url(#filter0_i_1_2)">
<path d="M4.8645 30V1.056H5.9445V30H4.8645ZM0.1125 30V1.056H1.1925V30H0.1125ZM2.4885 30V1.056H3.5685V30H2.4885ZM7.2405 2.136V1.056H21.6045V2.136H7.2405ZM7.2405 4.512V3.432H21.6045V4.512H7.2405ZM7.2405 6.888V5.808H21.6045V6.888H7.2405ZM7.2405 13.692V12.612H19.5525V13.692H7.2405ZM7.2405 16.068V14.988H19.5525V16.068H7.2405ZM7.2405 18.444V17.364H19.5525V18.444H7.2405ZM7.2405 25.248V24.168H21.6045V25.248H7.2405ZM7.2405 27.624V26.544H21.6045V27.624H7.2405ZM7.2405 30V28.92H21.6045V30H7.2405ZM28.4358 30L38.9118 1.056H40.0638L29.5878 30H28.4358ZM23.3958 30L33.8718 1.056H34.9878L24.5478 30H23.3958ZM25.9158 30L36.3558 1.056H37.5438L27.0678 30H25.9158ZM49.5318 30L40.1358 4.044L40.7118 2.424L50.6838 30H49.5318ZM47.0118 30L38.9118 7.572L39.4518 5.916L48.1638 30H47.0118ZM44.4918 30L37.6518 11.064L38.2278 9.444L45.6438 30H44.4918ZM34.3038 20.424L34.6998 19.344H39.4518L39.8478 20.424H34.3038ZM33.4398 22.836L33.8358 21.756H40.3158L40.7118 22.836H33.4398ZM32.5758 25.212L32.9718 24.132H41.1798L41.5758 25.212H32.5758Z" fill="#F09235" style="fill:#F09235;fill:color(display-p3 0.9412 0.5725 0.2078);fill-opacity:1;"/>
<path d="M62.8189 25.788C61.1149 25.788 59.7109 25.464 58.6069 24.816C57.5029 24.144 56.9029 23.256 56.8069 22.152L57.8509 21.864C57.8509 22.68 58.3069 23.364 59.2189 23.916C60.1549 24.444 61.3549 24.708 62.8189 24.708C64.3309 24.708 65.5549 24.432 66.4909 23.88C67.4509 23.328 67.9309 22.62 67.9309 21.756C67.9309 20.94 67.5349 20.28 66.7429 19.776C65.9509 19.272 64.8709 18.828 63.5029 18.444L61.2709 17.796C58.2949 16.932 56.0509 15.84 54.5389 14.52C53.0269 13.2 52.2709 11.388 52.2709 9.084C52.2709 7.428 52.7269 5.964 53.6389 4.692C54.5749 3.396 55.8349 2.376 57.4189 1.632C59.0269 0.887998 60.8389 0.515998 62.8549 0.515998C64.6789 0.515998 66.3229 0.815998 67.7869 1.416C69.2749 1.992 70.4989 2.82 71.4589 3.9C72.4429 4.98 73.0669 6.24 73.3309 7.68L72.2869 7.968C72.0709 6.696 71.5309 5.58 70.6669 4.62C69.8029 3.66 68.6989 2.916 67.3549 2.388C66.0109 1.86 64.5109 1.596 62.8549 1.596C61.0309 1.596 59.3989 1.932 57.9589 2.604C56.5429 3.252 55.4149 4.14 54.5749 5.268C53.7589 6.396 53.3509 7.692 53.3509 9.156C53.3509 11.124 54.0349 12.708 55.4029 13.908C56.7949 15.084 58.8469 16.044 61.5589 16.788L63.7909 17.4C65.4469 17.856 66.7309 18.408 67.6429 19.056C68.5549 19.704 69.0109 20.58 69.0109 21.684C69.0109 22.908 68.4469 23.904 67.3189 24.672C66.1909 25.416 64.6909 25.788 62.8189 25.788ZM62.8189 28.164C60.5629 28.164 58.6669 27.672 57.1309 26.688C55.6189 25.68 54.7309 24.372 54.4669 22.764L55.5469 22.476C55.7389 23.868 56.4829 24.984 57.7789 25.824C59.0989 26.664 60.7789 27.084 62.8189 27.084C64.3069 27.084 65.6149 26.856 66.7429 26.4C67.8709 25.944 68.7469 25.308 69.3709 24.492C69.9949 23.676 70.3069 22.74 70.3069 21.684C70.3069 20.22 69.7549 19.068 68.6509 18.228C67.5469 17.364 66.0229 16.668 64.0789 16.14L61.8829 15.528C59.5549 14.88 57.7669 14.064 56.5189 13.08C55.2709 12.096 54.6469 10.788 54.6469 9.156C54.6469 7.932 54.9949 6.852 55.6909 5.916C56.4109 4.98 57.3949 4.248 58.6429 3.72C59.8909 3.168 61.2949 2.892 62.8549 2.892C64.3189 2.892 65.6269 3.12 66.7789 3.576C67.9549 4.008 68.9149 4.632 69.6589 5.448C70.4029 6.264 70.8589 7.212 71.0269 8.292L69.9469 8.58C69.7789 7.188 69.0349 6.072 67.7149 5.232C66.4189 4.392 64.7989 3.972 62.8549 3.972C61.4869 3.972 60.2629 4.2 59.1829 4.656C58.1029 5.088 57.2509 5.7 56.6269 6.492C56.0269 7.26 55.7269 8.148 55.7269 9.156C55.7269 10.524 56.2669 11.604 57.3469 12.396C58.4509 13.188 60.0469 13.884 62.1349 14.484L64.2949 15.096C66.5269 15.72 68.2669 16.548 69.5149 17.58C70.7629 18.588 71.3869 19.956 71.3869 21.684C71.3869 22.956 71.0269 24.084 70.3069 25.068C69.5869 26.028 68.5789 26.784 67.2829 27.336C66.0109 27.888 64.5229 28.164 62.8189 28.164ZM62.8189 30.54C60.9469 30.54 59.2549 30.252 57.7429 29.676C56.2549 29.076 55.0189 28.248 54.0349 27.192C53.0749 26.112 52.4509 24.84 52.1629 23.376L53.2069 23.088C53.4469 24.384 53.9869 25.512 54.8269 26.472C55.6909 27.408 56.8069 28.14 58.1749 28.668C59.5429 29.196 61.0909 29.46 62.8189 29.46C64.7869 29.46 66.5029 29.136 67.9669 28.488C69.4549 27.816 70.6069 26.904 71.4229 25.752C72.2629 24.576 72.6829 23.22 72.6829 21.684C72.6829 19.644 71.9749 18.012 70.5589 16.788C69.1429 15.564 67.1509 14.58 64.5829 13.836L62.4589 13.224C60.7069 12.72 59.3629 12.168 58.4269 11.568C57.4909 10.968 57.0229 10.164 57.0229 9.156C57.0229 7.98 57.5749 7.044 58.6789 6.348C59.7829 5.628 61.1749 5.268 62.8549 5.268C64.4869 5.268 65.8309 5.604 66.8869 6.276C67.9429 6.948 68.5429 7.824 68.6869 8.904L67.6429 9.192C67.5949 8.352 67.1269 7.668 66.2389 7.14C65.3749 6.612 64.2469 6.348 62.8549 6.348C61.5349 6.348 60.4069 6.6 59.4709 7.104C58.5589 7.608 58.1029 8.268 58.1029 9.084C58.1029 9.828 58.5229 10.428 59.3629 10.884C60.2269 11.34 61.3549 11.772 62.7469 12.18L64.7989 12.792C67.7029 13.656 69.9229 14.784 71.4589 16.176C72.9949 17.544 73.7629 19.404 73.7629 21.756C73.7629 23.46 73.2949 24.984 72.3589 26.328C71.4469 27.648 70.1629 28.68 68.5069 29.424C66.8749 30.168 64.9789 30.54 62.8189 30.54ZM89.0755 16.356L79.1035 1.056H80.3995L90.4075 16.356H89.0755ZM83.3875 16.356L73.4155 1.056H74.7115L84.6835 16.356H83.3875ZM86.2675 16.356L76.2595 1.056H77.5555L87.5275 16.356H86.2675ZM88.2835 10.704L87.5995 9.696L93.3595 1.056H94.6555L88.2835 10.704ZM89.7235 12.936L89.0755 11.892L96.2035 1.056H97.4995L89.7235 12.936ZM91.1635 15.132L90.4795 14.124L99.0475 1.056H100.344L91.1635 15.132ZM88.7155 30V17.688H89.7955V30H88.7155ZM83.9635 30V17.688H85.0435V30H83.9635ZM86.3395 30V17.688H87.4195V30H86.3395Z" fill="#3579F6" style="fill:#3579F6;fill:color(display-p3 0.2078 0.4745 0.9647);fill-opacity:1;"/>
</g>
<path d="M4.8645 30H4.6145V30.25H4.8645V30ZM4.8645 1.056V0.805999H4.6145V1.056H4.8645ZM5.9445 1.056H6.1945V0.805999H5.9445V1.056ZM5.9445 30V30.25H6.1945V30H5.9445ZM0.1125 30H-0.1375V30.25H0.1125V30ZM0.1125 1.056V0.805999H-0.1375V1.056H0.1125ZM1.1925 1.056H1.4425V0.805999H1.1925V1.056ZM1.1925 30V30.25H1.4425V30H1.1925ZM2.4885 30H2.2385V30.25H2.4885V30ZM2.4885 1.056V0.805999H2.2385V1.056H2.4885ZM3.5685 1.056H3.8185V0.805999H3.5685V1.056ZM3.5685 30V30.25H3.8185V30H3.5685ZM7.2405 2.136H6.9905V2.386H7.2405V2.136ZM7.2405 1.056V0.805999H6.9905V1.056H7.2405ZM21.6045 1.056H21.8545V0.805999H21.6045V1.056ZM21.6045 2.136V2.386H21.8545V2.136H21.6045ZM7.2405 4.512H6.9905V4.762H7.2405V4.512ZM7.2405 3.432V3.182H6.9905V3.432H7.2405ZM21.6045 3.432H21.8545V3.182H21.6045V3.432ZM21.6045 4.512V4.762H21.8545V4.512H21.6045ZM7.2405 6.888H6.9905V7.138H7.2405V6.888ZM7.2405 5.808V5.558H6.9905V5.808H7.2405ZM21.6045 5.808H21.8545V5.558H21.6045V5.808ZM21.6045 6.888V7.138H21.8545V6.888H21.6045ZM7.2405 13.692H6.9905V13.942H7.2405V13.692ZM7.2405 12.612V12.362H6.9905V12.612H7.2405ZM19.5525 12.612H19.8025V12.362H19.5525V12.612ZM19.5525 13.692V13.942H19.8025V13.692H19.5525ZM7.2405 16.068H6.9905V16.318H7.2405V16.068ZM7.2405 14.988V14.738H6.9905V14.988H7.2405ZM19.5525 14.988H19.8025V14.738H19.5525V14.988ZM19.5525 16.068V16.318H19.8025V16.068H19.5525ZM7.2405 18.444H6.9905V18.694H7.2405V18.444ZM7.2405 17.364V17.114H6.9905V17.364H7.2405ZM19.5525 17.364H19.8025V17.114H19.5525V17.364ZM19.5525 18.444V18.694H19.8025V18.444H19.5525ZM7.2405 25.248H6.9905V25.498H7.2405V25.248ZM7.2405 24.168V23.918H6.9905V24.168H7.2405ZM21.6045 24.168H21.8545V23.918H21.6045V24.168ZM21.6045 25.248V25.498H21.8545V25.248H21.6045ZM7.2405 27.624H6.9905V27.874H7.2405V27.624ZM7.2405 26.544V26.294H6.9905V26.544H7.2405ZM21.6045 26.544H21.8545V26.294H21.6045V26.544ZM21.6045 27.624V27.874H21.8545V27.624H21.6045ZM7.2405 30H6.9905V30.25H7.2405V30ZM7.2405 28.92V28.67H6.9905V28.92H7.2405ZM21.6045 28.92H21.8545V28.67H21.6045V28.92ZM21.6045 30V30.25H21.8545V30H21.6045ZM5.1145 30V1.056H4.6145V30H5.1145ZM4.8645 1.306H5.9445V0.805999H4.8645V1.306ZM5.6945 1.056V30H6.1945V1.056H5.6945ZM5.9445 29.75H4.8645V30.25H5.9445V29.75ZM0.3625 30V1.056H-0.1375V30H0.3625ZM0.1125 1.306H1.1925V0.805999H0.1125V1.306ZM0.9425 1.056V30H1.4425V1.056H0.9425ZM1.1925 29.75H0.1125V30.25H1.1925V29.75ZM2.7385 30V1.056H2.2385V30H2.7385ZM2.4885 1.306H3.5685V0.805999H2.4885V1.306ZM3.3185 1.056V30H3.8185V1.056H3.3185ZM3.5685 29.75H2.4885V30.25H3.5685V29.75ZM7.4905 2.136V1.056H6.9905V2.136H7.4905ZM7.2405 1.306H21.6045V0.805999H7.2405V1.306ZM21.3545 1.056V2.136H21.8545V1.056H21.3545ZM21.6045 1.886H7.2405V2.386H21.6045V1.886ZM7.4905 4.512V3.432H6.9905V4.512H7.4905ZM7.2405 3.682H21.6045V3.182H7.2405V3.682ZM21.3545 3.432V4.512H21.8545V3.432H21.3545ZM21.6045 4.262H7.2405V4.762H21.6045V4.262ZM7.4905 6.888V5.808H6.9905V6.888H7.4905ZM7.2405 6.058H21.6045V5.558H7.2405V6.058ZM21.3545 5.808V6.888H21.8545V5.808H21.3545ZM21.6045 6.638H7.2405V7.138H21.6045V6.638ZM7.4905 13.692V12.612H6.9905V13.692H7.4905ZM7.2405 12.862H19.5525V12.362H7.2405V12.862ZM19.3025 12.612V13.692H19.8025V12.612H19.3025ZM19.5525 13.442H7.2405V13.942H19.5525V13.442ZM7.4905 16.068V14.988H6.9905V16.068H7.4905ZM7.2405 15.238H19.5525V14.738H7.2405V15.238ZM19.3025 14.988V16.068H19.8025V14.988H19.3025ZM19.5525 15.818H7.2405V16.318H19.5525V15.818ZM7.4905 18.444V17.364H6.9905V18.444H7.4905ZM7.2405 17.614H19.5525V17.114H7.2405V17.614ZM19.3025 17.364V18.444H19.8025V17.364H19.3025ZM19.5525 18.194H7.2405V18.694H19.5525V18.194ZM7.4905 25.248V24.168H6.9905V25.248H7.4905ZM7.2405 24.418H21.6045V23.918H7.2405V24.418ZM21.3545 24.168V25.248H21.8545V24.168H21.3545ZM21.6045 24.998H7.2405V25.498H21.6045V24.998ZM7.4905 27.624V26.544H6.9905V27.624H7.4905ZM7.2405 26.794H21.6045V26.294H7.2405V26.794ZM21.3545 26.544V27.624H21.8545V26.544H21.3545ZM21.6045 27.374H7.2405V27.874H21.6045V27.374ZM7.4905 30V28.92H6.9905V30H7.4905ZM7.2405 29.17H21.6045V28.67H7.2405V29.17ZM21.3545 28.92V30H21.8545V28.92H21.3545ZM21.6045 29.75H7.2405V30.25H21.6045V29.75ZM28.4358 30L28.2007 29.9149L28.0794 30.25H28.4358V30ZM38.9118 1.056V0.805999H38.7364L38.6767 0.970916L38.9118 1.056ZM40.0638 1.056L40.2989 1.14108L40.4201 0.805999H40.0638V1.056ZM29.5878 30V30.25H29.7632L29.8229 30.0851L29.5878 30ZM23.3958 30L23.1607 29.9149L23.0394 30.25H23.3958V30ZM33.8718 1.056V0.805999H33.6964L33.6367 0.970916L33.8718 1.056ZM34.9878 1.056L35.223 1.14082L35.3437 0.805999H34.9878V1.056ZM24.5478 30V30.25H24.7234L24.783 30.0848L24.5478 30ZM25.9158 30L25.6806 29.9152L25.5598 30.25H25.9158V30ZM36.3558 1.056V0.805999H36.1802L36.1206 0.971174L36.3558 1.056ZM37.5438 1.056L37.7789 1.14108L37.9001 0.805999H37.5438V1.056ZM27.0678 30V30.25H27.2432L27.3029 30.0851L27.0678 30ZM49.5318 30L49.2967 30.0851L49.3564 30.25H49.5318V30ZM40.1358 4.044L39.9002 3.96025L39.8702 4.04476L39.9007 4.12909L40.1358 4.044ZM40.7118 2.424L40.9469 2.33898L40.7098 1.68335L40.4762 2.34025L40.7118 2.424ZM50.6838 30V30.25H51.04L50.9189 29.915L50.6838 30ZM47.0118 30L46.7766 30.0849L46.8363 30.25H47.0118V30ZM38.9118 7.572L38.6741 7.49449L38.6475 7.57614L38.6766 7.65692L38.9118 7.572ZM39.4518 5.916L39.6869 5.83096L39.4395 5.14718L39.2141 5.83849L39.4518 5.916ZM48.1638 30V30.25H48.5201L48.3989 29.915L48.1638 30ZM44.4918 30L44.2567 30.0849L44.3163 30.25H44.4918V30ZM37.6518 11.064L37.4162 10.9802L37.3862 11.0647L37.4167 11.1489L37.6518 11.064ZM38.2278 9.444L38.4629 9.35916L38.2261 8.70257L37.9922 9.36025L38.2278 9.444ZM45.6438 30V30.25H45.9997L45.8789 29.9152L45.6438 30ZM34.3038 20.424L34.0691 20.3379L33.9458 20.674H34.3038V20.424ZM34.6998 19.344V19.094H34.5252L34.4651 19.2579L34.6998 19.344ZM39.4518 19.344L39.6865 19.2579L39.6264 19.094H39.4518V19.344ZM39.8478 20.424V20.674H40.2057L40.0825 20.3379L39.8478 20.424ZM33.4398 22.836L33.2051 22.7499L33.0818 23.086H33.4398V22.836ZM33.8358 21.756V21.506H33.6612L33.6011 21.6699L33.8358 21.756ZM40.3158 21.756L40.5505 21.6699L40.4904 21.506H40.3158V21.756ZM40.7118 22.836V23.086H41.0697L40.9465 22.7499L40.7118 22.836ZM32.5758 25.212L32.3411 25.1259L32.2178 25.462H32.5758V25.212ZM32.9718 24.132V23.882H32.7972L32.7371 24.0459L32.9718 24.132ZM41.1798 24.132L41.4145 24.0459L41.3544 23.882H41.1798V24.132ZM41.5758 25.212V25.462H41.9337L41.8105 25.1259L41.5758 25.212ZM28.6709 30.0851L39.1469 1.14108L38.6767 0.970916L28.2007 29.9149L28.6709 30.0851ZM38.9118 1.306H40.0638V0.805999H38.9118V1.306ZM39.8287 0.970916L29.3527 29.9149L29.8229 30.0851L40.2989 1.14108L39.8287 0.970916ZM29.5878 29.75H28.4358V30.25H29.5878V29.75ZM23.6309 30.0851L34.1069 1.14108L33.6367 0.970916L23.1607 29.9149L23.6309 30.0851ZM33.8718 1.306H34.9878V0.805999H33.8718V1.306ZM34.7526 0.971174L24.3126 29.9152L24.783 30.0848L35.223 1.14082L34.7526 0.971174ZM24.5478 29.75H23.3958V30.25H24.5478V29.75ZM26.151 30.0848L36.591 1.14082L36.1206 0.971174L25.6806 29.9152L26.151 30.0848ZM36.3558 1.306H37.5438V0.805999H36.3558V1.306ZM37.3087 0.970916L26.8327 29.9149L27.3029 30.0851L37.7789 1.14108L37.3087 0.970916ZM27.0678 29.75H25.9158V30.25H27.0678V29.75ZM49.7669 29.9149L40.3709 3.9589L39.9007 4.12909L49.2967 30.0851L49.7669 29.9149ZM40.3713 4.12775L40.9473 2.50775L40.4762 2.34025L39.9002 3.96025L40.3713 4.12775ZM40.4767 2.50902L50.4487 30.085L50.9189 29.915L40.9469 2.33898L40.4767 2.50902ZM50.6838 29.75H49.5318V30.25H50.6838V29.75ZM47.2469 29.9151L39.1469 7.48708L38.6766 7.65692L46.7766 30.0849L47.2469 29.9151ZM39.1495 7.6495L39.6895 5.9935L39.2141 5.83849L38.6741 7.49449L39.1495 7.6495ZM39.2167 6.00104L47.9287 30.085L48.3989 29.915L39.6869 5.83096L39.2167 6.00104ZM48.1638 29.75H47.0118V30.25H48.1638V29.75ZM44.7269 29.9151L37.8869 10.9791L37.4167 11.1489L44.2567 30.0849L44.7269 29.9151ZM37.8873 11.1478L38.4633 9.52775L37.9922 9.36025L37.4162 10.9802L37.8873 11.1478ZM37.9926 9.52884L45.4086 30.0848L45.8789 29.9152L38.4629 9.35916L37.9926 9.52884ZM45.6438 29.75H44.4918V30.25H45.6438V29.75ZM34.5385 20.5101L34.9345 19.4301L34.4651 19.2579L34.0691 20.3379L34.5385 20.5101ZM34.6998 19.594H39.4518V19.094H34.6998V19.594ZM39.2171 19.4301L39.6131 20.5101L40.0825 20.3379L39.6865 19.2579L39.2171 19.4301ZM39.8478 20.174H34.3038V20.674H39.8478V20.174ZM33.6745 22.9221L34.0705 21.8421L33.6011 21.6699L33.2051 22.7499L33.6745 22.9221ZM33.8358 22.006H40.3158V21.506H33.8358V22.006ZM40.0811 21.8421L40.4771 22.9221L40.9465 22.7499L40.5505 21.6699L40.0811 21.8421ZM40.7118 22.586H33.4398V23.086H40.7118V22.586ZM32.8105 25.2981L33.2065 24.2181L32.7371 24.0459L32.3411 25.1259L32.8105 25.2981ZM32.9718 24.382H41.1798V23.882H32.9718V24.382ZM40.9451 24.2181L41.3411 25.2981L41.8105 25.1259L41.4145 24.0459L40.9451 24.2181ZM41.5758 24.962H32.5758V25.462H41.5758V24.962ZM58.6069 24.816L58.4769 25.0296L58.4803 25.0316L58.6069 24.816ZM56.8069 22.152L56.7404 21.911L56.5398 21.9663L56.5578 22.1737L56.8069 22.152ZM57.8509 21.864H58.1009V21.5357L57.7844 21.623L57.8509 21.864ZM59.2189 23.916L59.0894 24.13L59.096 24.1337L59.2189 23.916ZM66.4909 23.88L66.3663 23.6633L66.3639 23.6647L66.4909 23.88ZM63.5029 18.444L63.4332 18.6841L63.4353 18.6847L63.5029 18.444ZM61.2709 17.796L61.2012 18.0361L61.2012 18.0361L61.2709 17.796ZM54.5389 14.52L54.3745 14.7083L54.3745 14.7083L54.5389 14.52ZM53.6389 4.692L53.4362 4.54563L53.4357 4.54633L53.6389 4.692ZM57.4189 1.632L57.3139 1.4051L57.3126 1.40572L57.4189 1.632ZM67.7869 1.416L67.6921 1.64737L67.6966 1.64914L67.7869 1.416ZM71.4589 3.9L71.272 4.0661L71.2741 4.06837L71.4589 3.9ZM73.3309 7.68L73.3974 7.921L73.6181 7.86011L73.5768 7.63492L73.3309 7.68ZM72.2869 7.968L72.0404 8.00985L72.0867 8.28255L72.3534 8.209L72.2869 7.968ZM67.3549 2.388L67.2635 2.62069L67.2635 2.62069L67.3549 2.388ZM57.9589 2.604L58.0629 2.83133L58.0646 2.83054L57.9589 2.604ZM54.5749 5.268L54.3743 5.11867L54.3723 5.12147L54.5749 5.268ZM55.4029 13.908L55.238 14.096L55.2415 14.099L55.4029 13.908ZM61.5589 16.788L61.4927 17.0291L61.4928 17.0291L61.5589 16.788ZM63.7909 17.4L63.8572 17.159L63.857 17.1589L63.7909 17.4ZM67.6429 19.056L67.7877 18.8522L67.7877 18.8522L67.6429 19.056ZM67.3189 24.672L67.4565 24.8807L67.4596 24.8786L67.3189 24.672ZM57.1309 26.688L56.9922 26.896L56.996 26.8985L57.1309 26.688ZM54.4669 22.764L54.4025 22.5224L54.1835 22.5808L54.2202 22.8045L54.4669 22.764ZM55.5469 22.476L55.7945 22.4418L55.7559 22.1615L55.4825 22.2344L55.5469 22.476ZM57.7789 25.824L57.6429 26.0338L57.6447 26.0349L57.7789 25.824ZM69.3709 24.492L69.1723 24.3401L69.1723 24.3401L69.3709 24.492ZM68.6509 18.228L68.4968 18.4249L68.4995 18.427L68.6509 18.228ZM64.0789 16.14L64.0118 16.3808L64.0133 16.3813L64.0789 16.14ZM61.8829 15.528L61.95 15.2872L61.9499 15.2872L61.8829 15.528ZM56.5189 13.08L56.6737 12.8837L56.6737 12.8837L56.5189 13.08ZM55.6909 5.916L55.4927 5.76355L55.4903 5.76682L55.6909 5.916ZM58.6429 3.72L58.7403 3.95027L58.744 3.94863L58.6429 3.72ZM66.7789 3.576L66.6868 3.80852L66.6927 3.81067L66.7789 3.576ZM69.6589 5.448L69.8436 5.27956L69.8436 5.27956L69.6589 5.448ZM71.0269 8.292L71.0913 8.53356L71.3084 8.47565L71.2739 8.25357L71.0269 8.292ZM69.9469 8.58L69.6987 8.60995L69.7332 8.89572L70.0113 8.82156L69.9469 8.58ZM67.7149 5.232L67.5789 5.44179L67.5807 5.44291L67.7149 5.232ZM59.1829 4.656L59.2757 4.88816L59.2801 4.88631L59.1829 4.656ZM56.6269 6.492L56.4305 6.33728L56.4299 6.33809L56.6269 6.492ZM57.3469 12.396L57.199 12.5976L57.2011 12.5991L57.3469 12.396ZM62.1349 14.484L62.0658 14.7243L62.0667 14.7245L62.1349 14.484ZM64.2949 15.096L64.2267 15.3365L64.2276 15.3368L64.2949 15.096ZM69.5149 17.58L69.3555 17.7727L69.3578 17.7745L69.5149 17.58ZM70.3069 25.068L70.5069 25.218L70.5086 25.2156L70.3069 25.068ZM67.2829 27.336L67.1849 27.106L67.1834 27.1067L67.2829 27.336ZM57.7429 29.676L57.6494 29.9079L57.6539 29.9096L57.7429 29.676ZM54.0349 27.192L53.848 27.3581L53.852 27.3624L54.0349 27.192ZM52.1629 23.376L52.0964 23.135L51.8728 23.1967L51.9176 23.4243L52.1629 23.376ZM53.2069 23.088L53.4527 23.0425L53.4031 22.7745L53.1404 22.847L53.2069 23.088ZM54.8269 26.472L54.6387 26.6367L54.6432 26.6416L54.8269 26.472ZM58.1749 28.668L58.0849 28.9012L58.0849 28.9012L58.1749 28.668ZM67.9669 28.488L68.0681 28.7166L68.0698 28.7158L67.9669 28.488ZM71.4229 25.752L71.2194 25.6067L71.2189 25.6075L71.4229 25.752ZM70.5589 16.788L70.7224 16.5989L70.7224 16.5989L70.5589 16.788ZM64.5829 13.836L64.6524 13.5959L64.6521 13.5958L64.5829 13.836ZM62.4589 13.224L62.5281 12.9838L62.528 12.9837L62.4589 13.224ZM58.4269 11.568L58.5618 11.3575L58.5618 11.3575L58.4269 11.568ZM58.6789 6.348L58.8122 6.55951L58.8154 6.5574L58.6789 6.348ZM68.6869 8.904L68.7534 9.145L68.9635 9.08703L68.9347 8.87096L68.6869 8.904ZM67.6429 9.192L67.3933 9.20626L67.4109 9.51532L67.7094 9.433L67.6429 9.192ZM66.2389 7.14L66.1085 7.35333L66.1111 7.35488L66.2389 7.14ZM59.4709 7.104L59.3523 6.88387L59.35 6.88519L59.4709 7.104ZM59.3629 10.884L59.2436 11.1037L59.2462 11.1051L59.3629 10.884ZM62.7469 12.18L62.8183 11.9404L62.8172 11.9401L62.7469 12.18ZM64.7989 12.792L64.7274 13.0316L64.7276 13.0316L64.7989 12.792ZM71.4589 16.176L71.291 16.3613L71.2926 16.3627L71.4589 16.176ZM72.3589 26.328L72.1537 26.1851L72.1532 26.1859L72.3589 26.328ZM68.5069 29.424L68.4044 29.196L68.4032 29.1965L68.5069 29.424ZM62.8189 25.538C61.1451 25.538 59.7884 25.2196 58.7334 24.6004L58.4803 25.0316C59.6334 25.7084 61.0847 26.038 62.8189 26.038V25.538ZM58.7369 24.6025C57.688 23.964 57.1438 23.1412 57.0559 22.1303L56.5578 22.1737C56.6619 23.3708 57.3178 24.324 58.4769 25.0295L58.7369 24.6025ZM56.8734 22.393L57.9174 22.105L57.7844 21.623L56.7404 21.911L56.8734 22.393ZM57.6009 21.864C57.6009 22.7941 58.1287 23.5484 59.0894 24.1299L59.3483 23.7021C58.4851 23.1796 58.1009 22.5659 58.1009 21.864H57.6009ZM59.096 24.1337C60.0807 24.6892 61.3268 24.958 62.8189 24.958V24.458C61.383 24.458 60.2291 24.1988 59.3417 23.6983L59.096 24.1337ZM62.8189 24.958C64.3589 24.958 65.6312 24.6772 66.6179 24.0953L66.3639 23.6647C65.4786 24.1868 64.3029 24.458 62.8189 24.458V24.958ZM66.6155 24.0967C67.6278 23.5146 68.1809 22.7352 68.1809 21.756H67.6809C67.6809 22.5048 67.2739 23.1414 66.3663 23.6633L66.6155 24.0967ZM68.1809 21.756C68.1809 20.8404 67.7285 20.1069 66.8771 19.5651L66.6087 19.9869C67.3413 20.4531 67.6809 21.0396 67.6809 21.756H68.1809ZM66.8771 19.5651C66.0568 19.0431 64.9512 18.5909 63.5704 18.2033L63.4353 18.6847C64.7905 19.0651 65.845 19.5009 66.6087 19.9869L66.8771 19.5651ZM63.5726 18.2039L61.3406 17.5559L61.2012 18.0361L63.4332 18.6841L63.5726 18.2039ZM61.3406 17.5559C58.3824 16.6971 56.177 15.6183 54.7033 14.3317L54.3745 14.7083C55.9247 16.0617 58.2073 17.1669 61.2012 18.0361L61.3406 17.5559ZM54.7033 14.3317C53.254 13.0664 52.5209 11.3277 52.5209 9.084H52.0209C52.0209 11.4483 52.7997 13.3336 54.3745 14.7083L54.7033 14.3317ZM52.5209 9.084C52.5209 7.47704 52.9623 6.06466 53.842 4.83767L53.4357 4.54633C52.4914 5.86334 52.0209 7.37896 52.0209 9.084H52.5209ZM53.8415 4.83837C54.7504 3.57994 55.9758 2.586 57.5252 1.85828L57.3126 1.40572C55.6939 2.166 54.3993 3.21206 53.4362 4.54563L53.8415 4.83837ZM57.5239 1.85889C59.0947 1.13208 60.8701 0.765998 62.8549 0.765998V0.265998C60.8076 0.265998 58.9591 0.643915 57.3139 1.40511L57.5239 1.85889ZM62.8549 0.765998C64.6513 0.765998 66.2624 1.06139 67.6921 1.64733L67.8817 1.18467C66.3834 0.570604 64.7065 0.265998 62.8549 0.265998V0.765998ZM67.6966 1.64914C69.1515 2.21231 70.3411 3.0188 71.272 4.06609L71.6457 3.73391C70.6567 2.6212 69.3983 1.77169 67.8771 1.18286L67.6966 1.64914ZM71.2741 4.06837C72.2265 5.11373 72.8294 6.33099 73.085 7.72508L73.5768 7.63492C73.3044 6.14901 72.6592 4.84627 71.6437 3.73163L71.2741 4.06837ZM73.2644 7.439L72.2204 7.727L72.3534 8.209L73.3974 7.921L73.2644 7.439ZM72.5333 7.92614C72.3094 6.6074 71.7484 5.44793 70.8527 4.45276L70.4811 4.78724C71.3134 5.71207 71.8323 6.7846 72.0404 8.00985L72.5333 7.92614ZM70.8527 4.45276C69.9598 3.46065 68.8221 2.69581 67.4463 2.15531L67.2635 2.62069C68.5756 3.13619 69.6459 3.85934 70.4811 4.78724L70.8527 4.45276ZM67.4463 2.15531C66.0692 1.61432 64.5376 1.346 62.8549 1.346V1.846C64.4841 1.846 65.9525 2.10568 67.2635 2.62069L67.4463 2.15531ZM62.8549 1.346C60.9997 1.346 59.3308 1.68788 57.8532 2.37745L58.0646 2.83054C59.4669 2.17612 61.062 1.846 62.8549 1.846V1.346ZM57.8548 2.37667C56.4048 3.04024 55.2421 3.95348 54.3744 5.11868L54.7754 5.41732C55.5877 4.32652 56.6809 3.46376 58.0629 2.83133L57.8548 2.37667ZM54.3723 5.12147C53.5238 6.29438 53.1009 7.64227 53.1009 9.156H53.6009C53.6009 7.74173 53.9939 6.49761 54.7774 5.41453L54.3723 5.12147ZM53.1009 9.156C53.1009 11.1894 53.8111 12.8443 55.238 14.0959L55.5677 13.7201C54.2586 12.5717 53.6009 11.0586 53.6009 9.156H53.1009ZM55.2415 14.099C56.6722 15.3076 58.7629 16.2802 61.4927 17.0291L61.625 16.5469C58.9309 15.8078 56.9175 14.8604 55.5642 13.717L55.2415 14.099ZM61.4928 17.0291L63.7248 17.6411L63.857 17.1589L61.625 16.5469L61.4928 17.0291ZM63.7245 17.641C65.3658 18.093 66.619 18.6352 67.4981 19.2598L67.7877 18.8522C66.8427 18.1808 65.5279 17.619 63.8572 17.159L63.7245 17.641ZM67.4981 19.2598C68.3451 19.8617 68.7609 20.6622 68.7609 21.684H69.2609C69.2609 20.4978 68.7646 19.5463 67.7877 18.8522L67.4981 19.2598ZM68.7609 21.684C68.7609 22.8147 68.247 23.7376 67.1782 24.4654L67.4596 24.8786C68.6468 24.0704 69.2609 23.0013 69.2609 21.684H68.7609ZM67.1812 24.4633C66.107 25.1718 64.6602 25.538 62.8189 25.538V26.038C64.7216 26.038 66.2747 25.6602 67.4565 24.8807L67.1812 24.4633ZM62.8189 27.914C60.5993 27.914 58.7529 27.4302 57.2657 26.4775L56.996 26.8985C58.5809 27.9138 60.5264 28.414 62.8189 28.414V27.914ZM57.2696 26.48C55.8079 25.5055 54.965 24.2548 54.7136 22.7235L54.2202 22.8045C54.4968 24.4892 55.4299 25.8545 56.9922 26.896L57.2696 26.48ZM54.5313 23.0056L55.6113 22.7176L55.4825 22.2344L54.4025 22.5224L54.5313 23.0056ZM55.2992 22.5102C55.5022 23.9818 56.2927 25.1587 57.6429 26.0338L57.9148 25.6142C56.673 24.8093 55.9755 23.7542 55.7945 22.4418L55.2992 22.5102ZM57.6447 26.0349C59.0153 26.9071 60.7455 27.334 62.8189 27.334V26.834C60.8122 26.834 59.1825 26.4209 57.9131 25.6131L57.6447 26.0349ZM62.8189 27.334C64.332 27.334 65.673 27.1022 66.8366 26.6318L66.6492 26.1682C65.5568 26.6098 64.2817 26.834 62.8189 26.834V27.334ZM66.8366 26.6318C67.9984 26.1621 68.9136 25.5015 69.5695 24.6439L69.1723 24.3401C68.5801 25.1145 67.7434 25.7259 66.6492 26.1682L66.8366 26.6318ZM69.5695 24.6439C70.2278 23.783 70.5569 22.7932 70.5569 21.684H70.0569C70.0569 22.6868 69.7619 23.569 69.1723 24.3401L69.5695 24.6439ZM70.5569 21.684C70.5569 20.147 69.9723 18.9193 68.8023 18.029L68.4995 18.427C69.5375 19.2167 70.0569 20.293 70.0569 21.684H70.5569ZM68.805 18.0311C67.6659 17.1397 66.1076 16.432 64.1444 15.8987L64.0133 16.3813C65.9381 16.904 67.4279 17.5883 68.4968 18.4249L68.805 18.0311ZM64.146 15.8992L61.95 15.2872L61.8158 15.7688L64.0118 16.3808L64.146 15.8992ZM61.9499 15.2872C59.6389 14.6439 57.8857 13.8394 56.6737 12.8837L56.3641 13.2763C57.648 14.2886 59.4709 15.1161 61.8158 15.7688L61.9499 15.2872ZM56.6737 12.8837C55.4876 11.9486 54.8969 10.7138 54.8969 9.156H54.3969C54.3969 10.8622 55.0541 12.2434 56.3641 13.2763L56.6737 12.8837ZM54.8969 9.156C54.8969 7.9829 55.2292 6.95583 55.8915 6.06517L55.4903 5.76682C54.7605 6.74817 54.3969 7.88109 54.3969 9.156H54.8969ZM55.889 6.06843C56.5791 5.17139 57.5261 4.46394 58.7403 3.95024L58.5455 3.48976C57.2637 4.03206 56.2427 4.7886 55.4927 5.76357L55.889 6.06843ZM58.744 3.94863C59.9559 3.4126 61.3247 3.142 62.8549 3.142V2.642C61.265 2.642 59.8259 2.9234 58.5417 3.49137L58.744 3.94863ZM62.8549 3.142C64.293 3.142 65.569 3.36595 66.6869 3.80845L66.8709 3.34355C65.6848 2.87405 64.3448 2.642 62.8549 2.642V3.142ZM66.6927 3.81067C67.8361 4.2307 68.7606 4.83389 69.4741 5.61644L69.8436 5.27956C69.0691 4.43011 68.0736 3.7853 66.8651 3.34133L66.6927 3.81067ZM69.4741 5.61644C70.1854 6.39656 70.6195 7.29947 70.7798 8.33043L71.2739 8.25357C71.0983 7.12453 70.6203 6.13144 69.8436 5.27956L69.4741 5.61644ZM70.9625 8.05044L69.8825 8.33844L70.0113 8.82156L71.0913 8.53356L70.9625 8.05044ZM70.1951 8.55004C70.017 7.07447 69.224 5.89602 67.8491 5.02108L67.5807 5.44291C68.8458 6.24798 69.5408 7.30153 69.6987 8.60995L70.1951 8.55004ZM67.8508 5.02221C66.505 4.14993 64.8347 3.722 62.8549 3.722V4.222C64.7631 4.222 66.3327 4.63407 67.5789 5.44179L67.8508 5.02221ZM62.8549 3.722C61.459 3.722 60.2011 3.95471 59.0856 4.42569L59.2801 4.88631C60.3246 4.44529 61.5148 4.222 62.8549 4.222V3.722ZM59.09 4.42388C57.9757 4.86962 57.0856 5.50586 56.4305 6.33728L56.8232 6.64672C57.4162 5.89414 58.2301 5.30637 59.2757 4.88812L59.09 4.42388ZM56.4299 6.33809C55.7943 7.15164 55.4769 8.09428 55.4769 9.156H55.9769C55.9769 8.20171 56.2595 7.36836 56.8239 6.64591L56.4299 6.33809ZM55.4769 9.156C55.4769 10.6016 56.0532 11.7573 57.199 12.5976L57.4947 12.1944C56.4805 11.4507 55.9769 10.4464 55.9769 9.156H55.4769ZM57.2011 12.5991C58.3381 13.4148 59.9648 14.1205 62.0658 14.7243L62.2039 14.2437C60.129 13.6475 58.5637 12.9612 57.4926 12.1929L57.2011 12.5991ZM62.0667 14.7245L64.2267 15.3365L64.363 14.8555L62.203 14.2435L62.0667 14.7245ZM64.2276 15.3368C66.4393 15.9551 68.1435 16.7704 69.3556 17.7727L69.6742 17.3873C68.3902 16.3256 66.6144 15.4849 64.3622 14.8552L64.2276 15.3368ZM69.3578 17.7745C70.542 18.731 71.1369 20.0249 71.1369 21.684H71.6369C71.6369 19.8871 70.9837 18.445 69.672 17.3855L69.3578 17.7745ZM71.1369 21.684C71.1369 22.9054 70.7924 23.9811 70.1051 24.9204L70.5086 25.2156C71.2614 24.1869 71.6369 23.0066 71.6369 21.684H71.1369ZM70.1069 24.918C69.4175 25.8371 68.4475 26.5682 67.1849 27.106L67.3808 27.566C68.7102 26.9998 69.7562 26.2189 70.5069 25.218L70.1069 24.918ZM67.1834 27.1067C65.9491 27.6423 64.4963 27.914 62.8189 27.914V28.414C64.5495 28.414 66.0727 28.1337 67.3824 27.5653L67.1834 27.1067ZM62.8189 30.29C60.9726 30.29 59.3114 30.006 57.8319 29.4424L57.6539 29.9096C59.1984 30.498 60.9212 30.79 62.8189 30.79V30.29ZM57.8364 29.4441C56.3785 28.8563 55.1742 28.0479 54.2178 27.0216L53.852 27.3624C54.8636 28.4481 56.1313 29.2957 57.6494 29.9079L57.8364 29.4441ZM54.2217 27.0259C53.2924 25.9804 52.6879 24.7494 52.4082 23.3277L51.9176 23.4243C52.2139 24.9306 52.8574 26.2436 53.848 27.3581L54.2217 27.0259ZM52.2294 23.617L53.2734 23.329L53.1404 22.847L52.0964 23.135L52.2294 23.617ZM52.9611 23.1335C53.2089 24.4721 53.7681 25.6417 54.6387 26.6366L55.015 26.3074C54.2056 25.3823 53.6848 24.2959 53.4527 23.0425L52.9611 23.1335ZM54.6432 26.6416C55.5368 27.6096 56.6866 28.3615 58.0849 28.9012L58.2649 28.4348C56.9272 27.9185 55.845 27.2064 55.0106 26.3024L54.6432 26.6416ZM58.0849 28.9012C59.4862 29.4421 61.0655 29.71 62.8189 29.71V29.21C61.1163 29.21 59.5995 28.9499 58.2649 28.4348L58.0849 28.9012ZM62.8189 29.71C64.8139 29.71 66.5658 29.3816 68.0681 28.7166L67.8657 28.2594C66.44 28.8904 64.7598 29.21 62.8189 29.21V29.71ZM68.0698 28.7158C69.5919 28.0284 70.7814 27.0901 71.6269 25.8965L71.2189 25.6075C70.4324 26.7179 69.3179 27.6036 67.864 28.2602L68.0698 28.7158ZM71.6263 25.8973C72.4986 24.6762 72.9329 23.2686 72.9329 21.684H72.4329C72.4329 23.1714 72.0272 24.4758 71.2194 25.6067L71.6263 25.8973ZM72.9329 21.684C72.9329 19.5788 72.1986 17.875 70.7224 16.5989L70.3954 16.9771C71.7511 18.149 72.4329 19.7092 72.4329 21.684H72.9329ZM70.7224 16.5989C69.27 15.3434 67.2413 14.3459 64.6524 13.5959L64.5133 14.0761C67.0604 14.8141 69.0157 15.7845 70.3954 16.9771L70.7224 16.5989ZM64.6521 13.5958L62.5281 12.9838L62.3897 13.4642L64.5137 14.0762L64.6521 13.5958ZM62.528 12.9837C60.7864 12.4827 59.4686 11.9388 58.5618 11.3575L58.292 11.7785C59.2571 12.3972 60.6273 12.9573 62.3898 13.4643L62.528 12.9837ZM58.5618 11.3575C57.6887 10.7979 57.2729 10.0689 57.2729 9.156H56.7729C56.7729 10.2591 57.293 11.1381 58.292 11.7785L58.5618 11.3575ZM57.2729 9.156C57.2729 8.07649 57.7713 7.21567 58.8122 6.55948L58.5456 6.13652C57.3784 6.87233 56.7729 7.88351 56.7729 9.156H57.2729ZM58.8154 6.5574C59.869 5.8703 61.2101 5.518 62.8549 5.518V5.018C61.1396 5.018 59.6967 5.3857 58.5423 6.1386L58.8154 6.5574ZM62.8549 5.518C64.4535 5.518 65.7473 5.84712 66.7527 6.48691L67.0211 6.06508C65.9145 5.36088 64.5202 5.018 62.8549 5.018V5.518ZM66.7527 6.48691C67.7567 7.12588 68.3063 7.94153 68.4391 8.93704L68.9347 8.87096C68.7794 7.70647 68.129 6.77012 67.0211 6.06508L66.7527 6.48691ZM68.6204 8.663L67.5764 8.951L67.7094 9.433L68.7534 9.145L68.6204 8.663ZM67.8925 9.17774C67.8386 8.23535 67.3076 7.48457 66.3666 6.92511L66.1111 7.35488C66.9462 7.85142 67.3511 8.46865 67.3933 9.20626L67.8925 9.17774ZM66.3692 6.92668C65.4539 6.36731 64.2763 6.098 62.8549 6.098V6.598C64.2174 6.598 65.2958 6.85668 66.1085 7.35332L66.3692 6.92668ZM62.8549 6.098C61.5033 6.098 60.3326 6.35608 59.3524 6.88388L59.5894 7.32412C60.4812 6.84392 61.5664 6.598 62.8549 6.598V6.098ZM59.35 6.88519C58.384 7.41899 57.8529 8.15099 57.8529 9.084H58.3529C58.3529 8.38501 58.7337 7.79701 59.5918 7.32281L59.35 6.88519ZM57.8529 9.084C57.8529 9.94656 58.3498 10.6185 59.2436 11.1037L59.4821 10.6643C58.6959 10.2375 58.3529 9.70944 58.3529 9.084H57.8529ZM59.2462 11.1051C60.1302 11.5717 61.2754 12.0092 62.6766 12.4199L62.8172 11.9401C61.4343 11.5348 60.3235 11.1083 59.4796 10.6629L59.2462 11.1051ZM62.6754 12.4196L64.7274 13.0316L64.8703 12.5524L62.8183 11.9404L62.6754 12.4196ZM64.7276 13.0316C67.611 13.8895 69.7925 15.0032 71.291 16.3612L71.6268 15.9908C70.0533 14.5648 67.7948 13.4225 64.8702 12.5524L64.7276 13.0316ZM71.2926 16.3627C72.7674 17.6762 73.5129 19.464 73.5129 21.756H74.0129C74.0129 19.344 73.2223 17.4118 71.6251 15.9893L71.2926 16.3627ZM73.5129 21.756C73.5129 23.4111 73.0593 24.8848 72.1537 26.1851L72.564 26.4709C73.5305 25.0832 74.0129 23.5089 74.0129 21.756H73.5129ZM72.1532 26.1859C71.2704 27.4636 70.0244 28.4681 68.4044 29.196L68.6093 29.652C70.3013 28.8919 71.6234 27.8324 72.5646 26.4701L72.1532 26.1859ZM68.4032 29.1965C66.8097 29.923 64.9503 30.29 62.8189 30.29V30.79C65.0075 30.79 66.9401 30.413 68.6106 29.6515L68.4032 29.1965ZM89.0755 16.356L88.8661 16.4925L88.9401 16.606H89.0755V16.356ZM79.1035 1.056V0.805999H78.6422L78.8941 1.19251L79.1035 1.056ZM80.3995 1.056L80.6087 0.919147L80.5347 0.805999H80.3995V1.056ZM90.4075 16.356V16.606H90.8698L90.6167 16.2191L90.4075 16.356ZM83.3875 16.356L83.1781 16.4925L83.2521 16.606H83.3875V16.356ZM73.4155 1.056V0.805999H72.9542L73.2061 1.19251L73.4155 1.056ZM74.7115 1.056L74.921 0.919492L74.847 0.805999H74.7115V1.056ZM84.6835 16.356V16.606H85.1449L84.893 16.2195L84.6835 16.356ZM86.2675 16.356L86.0583 16.4929L86.1323 16.606H86.2675V16.356ZM76.2595 1.056V0.805999H75.7973L76.0503 1.19285L76.2595 1.056ZM77.5555 1.056L77.765 0.919492L77.691 0.805999H77.5555V1.056ZM87.5275 16.356V16.606H87.9889L87.737 16.2195L87.5275 16.356ZM88.2835 10.704L88.0767 10.8444L88.2863 11.1534L88.4921 10.8418L88.2835 10.704ZM87.5995 9.696L87.3915 9.55732L87.2982 9.69723L87.3927 9.83637L87.5995 9.696ZM93.3595 1.056V0.805999H93.2257L93.1515 0.917324L93.3595 1.056ZM94.6555 1.056L94.8641 1.19377L95.1202 0.805999H94.6555V1.056ZM89.7235 12.936L89.5111 13.0678L89.7179 13.401L89.9327 13.0729L89.7235 12.936ZM89.0755 11.892L88.8667 11.7546L88.7789 11.8881L88.8631 12.0238L89.0755 11.892ZM96.2035 1.056V0.805999H96.0687L95.9947 0.918608L96.2035 1.056ZM97.4995 1.056L97.7087 1.19291L97.962 0.805999H97.4995V1.056ZM91.1635 15.132L90.9567 15.2724L91.1677 15.5833L91.3729 15.2686L91.1635 15.132ZM90.4795 14.124L90.2705 13.9869L90.179 14.1264L90.2727 14.2644L90.4795 14.124ZM99.0475 1.056V0.805999H98.9125L98.8385 0.918923L99.0475 1.056ZM100.344 1.056L100.553 1.19257L100.805 0.805999H100.344V1.056ZM88.7155 30H88.4655V30.25H88.7155V30ZM88.7155 17.688V17.438H88.4655V17.688H88.7155ZM89.7955 17.688H90.0455V17.438H89.7955V17.688ZM89.7955 30V30.25H90.0455V30H89.7955ZM83.9635 30H83.7135V30.25H83.9635V30ZM83.9635 17.688V17.438H83.7135V17.688H83.9635ZM85.0435 17.688H85.2935V17.438H85.0435V17.688ZM85.0435 30V30.25H85.2935V30H85.0435ZM86.3395 30H86.0895V30.25H86.3395V30ZM86.3395 17.688V17.438H86.0895V17.688H86.3395ZM87.4195 17.688H87.6695V17.438H87.4195V17.688ZM87.4195 30V30.25H87.6695V30H87.4195ZM89.285 16.2195L79.313 0.919492L78.8941 1.19251L88.8661 16.4925L89.285 16.2195ZM79.1035 1.306H80.3995V0.805999H79.1035V1.306ZM80.1903 1.19285L90.1983 16.4929L90.6167 16.2191L80.6087 0.919147L80.1903 1.19285ZM90.4075 16.106H89.0755V16.606H90.4075V16.106ZM83.597 16.2195L73.625 0.919492L73.2061 1.19251L83.1781 16.4925L83.597 16.2195ZM73.4155 1.306H74.7115V0.805999H73.4155V1.306ZM74.5021 1.19251L84.4741 16.4925L84.893 16.2195L74.921 0.919492L74.5021 1.19251ZM84.6835 16.106H83.3875V16.606H84.6835V16.106ZM86.4767 16.2191L76.4687 0.919147L76.0503 1.19285L86.0583 16.4929L86.4767 16.2191ZM76.2595 1.306H77.5555V0.805999H76.2595V1.306ZM77.3461 1.19251L87.3181 16.4925L87.737 16.2195L77.765 0.919492L77.3461 1.19251ZM87.5275 16.106H86.2675V16.606H87.5275V16.106ZM88.4904 10.5636L87.8064 9.55562L87.3927 9.83637L88.0767 10.8444L88.4904 10.5636ZM87.8075 9.83467L93.5675 1.19467L93.1515 0.917324L87.3915 9.55732L87.8075 9.83467ZM93.3595 1.306H94.6555V0.805999H93.3595V1.306ZM94.4469 0.918224L88.0749 10.5662L88.4921 10.8418L94.8641 1.19377L94.4469 0.918224ZM89.9359 12.8042L89.2879 11.7602L88.8631 12.0238L89.5111 13.0678L89.9359 12.8042ZM89.2844 12.0294L96.4124 1.19339L95.9947 0.918608L88.8667 11.7546L89.2844 12.0294ZM96.2035 1.306H97.4995V0.805999H96.2035V1.306ZM97.2904 0.919084L89.5144 12.7991L89.9327 13.0729L97.7087 1.19291L97.2904 0.919084ZM91.3704 14.9916L90.6864 13.9836L90.2727 14.2644L90.9567 15.2724L91.3704 14.9916ZM90.6886 14.2611L99.2566 1.19308L98.8385 0.918923L90.2705 13.9869L90.6886 14.2611ZM99.0475 1.306H100.344V0.805999H99.0475V1.306ZM100.134 0.919432L90.9541 14.9954L91.3729 15.2686L100.553 1.19257L100.134 0.919432ZM88.9655 30V17.688H88.4655V30H88.9655ZM88.7155 17.938H89.7955V17.438H88.7155V17.938ZM89.5455 17.688V30H90.0455V17.688H89.5455ZM89.7955 29.75H88.7155V30.25H89.7955V29.75ZM84.2135 30V17.688H83.7135V30H84.2135ZM83.9635 17.938H85.0435V17.438H83.9635V17.938ZM84.7935 17.688V30H85.2935V17.688H84.7935ZM85.0435 29.75H83.9635V30.25H85.0435V29.75ZM86.5895 30V17.688H86.0895V30H86.5895ZM86.3395 17.938H87.4195V17.438H86.3395V17.938ZM87.1695 17.688V30H87.6695V17.688H87.1695ZM87.4195 29.75H86.3395V30.25H87.4195V29.75Z" fill="url(#paint0_linear_1_2)" fill-opacity="0.5" style="" mask="url(#path-1-outside-1_1_2)"/>
</g>
<defs>
<filter id="filter0_i_1_2" x="0.112499" y="0.515999" width="100.231" height="31.024" filterUnits="userSpaceOnUse" color-interpolation-filters="sRGB">
<feFlood flood-opacity="0" result="BackgroundImageFix"/>
<feBlend mode="normal" in="SourceGraphic" in2="BackgroundImageFix" result="shape"/>
<feColorMatrix in="SourceAlpha" type="matrix" values="0 0 0 0 0 0 0 0 0 0 0 0 0 0 0 0 0 0 127 0" result="hardAlpha"/>
<feOffset dy="1"/>
<feGaussianBlur stdDeviation="2"/>
<feComposite in2="hardAlpha" operator="arithmetic" k2="-1" k3="1"/>
<feColorMatrix type="matrix" values="0 0 0 0 0.0470588 0 0 0 0 0.0470588 0 0 0 0 0.0509804 0 0 0 0.05 0"/>
<feBlend mode="normal" in2="shape" result="effect1_innerShadow_1_2"/>
</filter>
<linearGradient id="paint0_linear_1_2" x1="49.5" y1="-4" x2="49.5" y2="39" gradientUnits="userSpaceOnUse">
<stop stop-color="white" style="stop-color:white;stop-opacity:1;"/>
<stop offset="0.55" stop-color="#BCADAD" style="stop-color:#BCADAD;stop-color:color(display-p3 0.7358 0.6794 0.6794);stop-opacity:1;"/>
<stop offset="1" stop-color="#302C2C" style="stop-color:#302C2C;stop-color:color(display-p3 0.1892 0.1740 0.1740);stop-opacity:1;"/>
</linearGradient>
</defs>
</svg>
